<?xml version="1.0" encoding="utf-8"?>
<!-- Generator: Adobe Illustrator 19.2.1, SVG Export Plug-In . SVG Version: 6.00 Build 0)  -->
<svg version="1.1" id="Layer_1" xmlns="http://www.w3.org/2000/svg" xmlns:xlink="http://www.w3.org/1999/xlink" x="0px" y="0px"
	 viewBox="0 0 453.9 448.4" style="enable-background:new 0 0 453.9 448.4;" xml:space="preserve">
<style type="text/css">
	.st0{fill:#FFFFFF;}
	.st1{fill:#1A2E35;}
	.st2{fill:#50D6FF;}
	.st3{fill:#375A64;}
	.st4{fill:#FF4F5B;}
	.st5{fill:#E1E1E1;}
	.st6{fill:#FFC127;}
	.st7{opacity:0.2;}
	.st8{fill:#FFBF9D;}
	.st9{fill:#FF9A6C;}
	.st10{opacity:0.3;}
	.st11{fill:#25A025;}
</style>
<g>
	<g>
		<g>
			<g>
				<g>
					<rect x="113.6" y="3.1" class="st0" width="306.9" height="195.8"/>
				</g>
				<g>
					<g>
						<path class="st1" d="M420.5,198.9c0-2-0.1-76.2-0.2-195.8l0.2,0.2c-83.8,0-190.8,0-306.9,0.1h0l0.3-0.3
							c0,69.5,0,135.7,0,195.8l-0.3-0.3C293.9,198.8,418,198.9,420.5,198.9c-2.5,0-126.6,0.1-306.9,0.3l-0.3,0v-0.3
							c0-60.2,0-126.4,0-195.8V2.8h0.3h0c116.2,0,223.1,0,306.9,0.1h0.2l0,0.2C420.6,122.7,420.5,196.9,420.5,198.9z"/>
					</g>
				</g>
			</g>
			<g>
				<polygon class="st2" points="113.6,8.6 113.4,18.7 420.2,19.2 420.5,8.6 				"/>
			</g>
			<g>
				<g>
					<polygon class="st1" points="400.6,49.4 399.4,113 448.5,114.5 449.9,50.1 					"/>
				</g>
				<g>
					<polygon class="st3" points="400.8,55.4 436.6,55.6 436.3,52.5 449.8,53 449.9,50.1 400.6,49.4 					"/>
				</g>
				<g>
					<polygon class="st4" points="402.7,52.4 402.6,54.1 411.6,54.1 411.2,52.5 					"/>
				</g>
				<g>
					<polygon class="st4" points="413.8,52.4 413.7,54.1 422.7,54.2 422.3,52.5 					"/>
				</g>
				<g>
					<polygon class="st4" points="425.1,52.7 425.1,54.4 434.1,54.4 433.7,52.7 					"/>
				</g>
				<g>
					<polygon class="st3" points="403.5,58.4 403.1,90.5 433.6,91.6 432.5,59.3 					"/>
				</g>
				<g>
					<g>
						<path class="st4" d="M432.4,61.3c0,0-0.4,0.5-1.1,1.5c-0.7,1-1.6,2.4-2.8,4.2c-0.6,0.9-1.2,1.9-2,2.9c-0.8,1-1.4,2.2-2,3.5
							c-0.6,1.3-1.2,2.7-1.9,4.2c-0.7,1.4-1.5,3-2.8,4.3l-0.4,0.3l-0.2-0.4c-1-2.1-2-4.5-2.7-6.9c-0.6-2-1-4-1.1-6l0.6,0.2
							c-2.5,2.5-3.9,5.7-5.3,8.4c-0.7,1.4-1.3,2.7-2,3.9c-0.7,1.2-1.3,2.2-1.9,3.2c-1.1,1.9-2.1,3.4-2.8,4.6c-0.7,1.1-1,1.6-1.1,1.6
							c0,0,0.3-0.6,0.9-1.7c0.7-1.2,1.5-2.8,2.6-4.7c0.6-1,1.2-2.1,1.8-3.3c0.6-1.2,1.3-2.5,1.9-3.9c1.3-2.7,2.8-5.9,5.4-8.6
							l0.6-0.6l0.1,0.8c0.1,1.9,0.6,3.8,1.1,5.8c0.7,2.4,1.7,4.7,2.7,6.8l-0.6-0.1c1.2-1.1,2-2.6,2.7-4c0.7-1.5,1.3-2.8,1.9-4.2
							c0.6-1.3,1.3-2.6,2.1-3.6c0.8-1,1.4-2,2-2.9c1.2-1.8,2.2-3.2,3-4.1C431.9,61.7,432.4,61.3,432.4,61.3z"/>
					</g>
				</g>
				<g>
					
						<rect x="434.9" y="61.2" transform="matrix(1 8.118036e-003 -8.118036e-003 1 0.527 -3.5442)" class="st3" width="3.9" height="3.9"/>
				</g>
				<g>
					<polygon class="st4" points="439.9,61.9 440,63.6 447.5,63.6 447.4,62.4 					"/>
				</g>
				<g>
					
						<rect x="435.4" y="67" transform="matrix(1 8.148213e-003 -8.148213e-003 1 0.5766 -3.5616)" class="st3" width="3.9" height="3.9"/>
				</g>
				<g>
					<polygon class="st4" points="440.4,67.7 440.6,69.5 448.1,69.4 448,68.2 					"/>
				</g>
				<g>
					
						<rect x="435.2" y="73.7" transform="matrix(1 8.148459e-003 -8.148459e-003 1 0.6314 -3.5599)" class="st3" width="3.9" height="3.9"/>
				</g>
				<g>
					<polygon class="st4" points="440.2,74.4 440.4,76.2 447.9,76.2 447.8,74.9 					"/>
				</g>
				<g>
					<polygon class="st3" points="403.9,93.9 440.5,94.6 440.4,97.8 403.7,96.5 					"/>
				</g>
				<g>
					<polygon class="st4" points="440.5,94.6 444.9,94.6 444.8,97.9 440.4,97.8 					"/>
				</g>
				<g>
					<polygon class="st3" points="404.5,99.9 445.1,100.5 445,104.3 404.3,102.5 					"/>
				</g>
				<g>
					<polygon class="st4" points="423.9,100.2 428.2,100.2 428.1,103.5 423.8,103.4 					"/>
				</g>
				<g>
					<polygon class="st3" points="405,105.7 441.7,106.4 441.5,109.7 404.8,108.3 					"/>
				</g>
				<g>
					<polygon class="st4" points="441.7,106.4 446,106.5 445.9,109.7 441.5,109.7 					"/>
				</g>
			</g>
			<g>
				<g>
					<g>
						<polygon class="st1" points="94.3,5.4 101.3,5.1 101.9,104 95.4,103.1 						"/>
					</g>
				</g>
				<g>
					<polygon class="st4" points="95.6,9.1 96.3,13.8 98.8,13.6 99.2,8.5 					"/>
				</g>
				<g>
					<polygon class="st4" points="96.5,57.9 97.2,62.6 99.7,62.4 100.1,57.3 					"/>
				</g>
				<g>
					<polygon class="st4" points="95.8,16.8 99.8,16.5 100.3,21.6 96,21.6 					"/>
				</g>
				<g>
					<polygon class="st4" points="96.2,32.9 99.6,32.8 100,38.4 96.3,38.2 					"/>
				</g>
				<g>
					<polygon class="st4" points="96.4,40.9 99.9,40.8 100.2,46.4 96.5,46.2 					"/>
				</g>
				<g>
					<polygon class="st4" points="96.7,49.2 100.1,49.1 100.5,54.7 96.8,54.5 					"/>
				</g>
				<g>
					<polygon class="st4" points="96.9,67.2 100.4,67.1 100.7,72.6 97,72.5 					"/>
				</g>
				<g>
					<polygon class="st4" points="96.1,24.7 100.1,25.1 100.3,30.3 96.5,30.3 					"/>
				</g>
			</g>
			<g>
				<rect x="113.6" y="3.1" class="st1" width="306.9" height="5.6"/>
			</g>
			<g>
				
					<ellipse transform="matrix(0.997 -7.734753e-002 7.734753e-002 0.997 -8.590244e-002 9.16)" class="st4" cx="118.2" cy="5.7" rx="1.1" ry="1.1"/>
			</g>
			<g>
				
					<ellipse transform="matrix(0.997 -7.734364e-002 7.734364e-002 0.997 -7.836927e-002 9.5028)" class="st4" cx="122.6" cy="5.8" rx="1.1" ry="1.1"/>
			</g>
			<g>
				
					<ellipse transform="matrix(0.997 -7.734777e-002 7.734777e-002 0.997 -6.841041e-002 9.8466)" class="st4" cx="127.1" cy="5.8" rx="1.1" ry="1.1"/>
			</g>
			<g>
				<polygon class="st3" points="133.4,4.9 133.6,7 148.3,7 148,4.9 				"/>
			</g>
			<g>
				<polygon class="st3" points="151.4,5.2 151.7,7.3 162,7.1 161.6,5 				"/>
			</g>
			<g>
				<polygon class="st3" points="167.2,5.5 167.4,7.6 177.8,7.6 177.4,5.6 				"/>
			</g>
		</g>
		<g>
			<g>
				<g>
					<g>
						<polygon class="st0" points="160.1,43.3 167.1,210.3 373.1,211.5 370.9,48 						"/>
					</g>
					<g>
						<g>
							<path class="st3" d="M160.1,43.3c0,0,0.3,0,1,0c0.7,0,1.6,0,2.9,0c2.6,0.1,6.4,0.1,11.4,0.2c10,0.2,24.6,0.5,43.1,0.9
								c37.1,0.8,89.8,1.9,152.4,3.3l0.3,0l0,0.3c0.7,48.7,1.4,104.2,2.2,162.9c0,0.2,0,0.4,0,0.6l0,0.3l-0.3,0
								c-76.2-0.5-147.1-0.9-206-1.3l-0.2,0l0-0.2c-2-50.4-3.7-92.2-4.9-121.4c-0.6-14.6-1-26-1.3-33.8c-0.1-3.9-0.3-6.8-0.3-8.9
								C160.1,44.3,160.1,43.3,160.1,43.3s0.1,1.1,0.2,3.1c0.1,2,0.2,5,0.4,8.9c0.3,7.8,0.8,19.2,1.5,33.8
								c1.2,29.1,3,70.9,5.2,121.2l-0.3-0.2c58.9,0.3,129.8,0.7,206,1.2l-0.3,0.3c0-0.2,0-0.4,0-0.6c-0.8-58.7-1.5-114.2-2.2-162.9
								l0.3,0.3c-62.5-1.5-115.2-2.7-152.2-3.5c-18.5-0.4-33.2-0.8-43.2-1c-5-0.1-8.8-0.2-11.4-0.3c-1.3,0-2.3-0.1-2.9-0.1
								C160.5,43.3,160.1,43.3,160.1,43.3z"/>
						</g>
					</g>
				</g>
				<g>
					<polygon class="st1" points="160,41.6 160.2,48.1 370.9,48 370.9,42.5 					"/>
				</g>
				<g>
					<g>
						<polygon class="st5" points="339.7,63.4 341.1,73.7 361.6,73.8 360.6,64.3 						"/>
					</g>
					<g>
						<polygon class="st3" points="339.7,65.9 360.7,66.8 360.6,64.3 339.7,63.4 						"/>
					</g>
					<g>
						<g>
							
								<rect x="344.4" y="67.6" transform="matrix(0.9999 -1.634243e-002 1.634243e-002 0.9999 -1.0846 5.6628)" class="st4" width="3.2" height="3.2"/>
						</g>
						<g>
							
								<rect x="343.8" y="68.1" transform="matrix(0.9999 -1.634182e-002 1.634182e-002 0.9999 -1.0931 5.6544)" class="st1" width="3.2" height="3.2"/>
						</g>
						<g>
							
								<rect x="342.8" y="69" transform="matrix(0.9999 -1.634237e-002 1.634237e-002 0.9999 -1.1075 5.6382)" class="st4" width="3.2" height="3.2"/>
						</g>
					</g>
					<g>
						<polygon class="st1" points="350.7,69 350.5,70.7 359.7,70.4 359.6,69.4 						"/>
					</g>
				</g>
				<g>
					<g>
						<polygon class="st5" points="339.9,75.3 341.3,85.6 361.8,85.7 360.8,76.2 						"/>
					</g>
					<g>
						<polygon class="st3" points="339.9,77.8 360.9,78.7 360.8,76.2 339.9,75.3 						"/>
					</g>
					<g>
						<g>
							
								<rect x="344.5" y="79.5" transform="matrix(0.9999 -1.634237e-002 1.634237e-002 0.9999 -1.2793 5.6675)" class="st4" width="3.2" height="3.2"/>
						</g>
						<g>
							
								<rect x="344" y="80" transform="matrix(0.9999 -1.634182e-002 1.634182e-002 0.9999 -1.2878 5.6592)" class="st1" width="3.2" height="3.2"/>
						</g>
						<g>
							
								<rect x="343" y="80.9" transform="matrix(0.9999 -1.630522e-002 1.630522e-002 0.9999 -1.2994 5.6301)" class="st4" width="3.2" height="3.2"/>
						</g>
					</g>
					<g>
						<polygon class="st1" points="350.9,80.9 350.7,82.6 359.8,82.3 359.7,81.3 						"/>
					</g>
				</g>
				<g>
					<g>
						
							<rect x="181.4" y="93.7" transform="matrix(1 -4.237149e-003 4.237149e-003 1 -0.4058 0.78)" class="st3" width="5" height="5"/>
					</g>
					<g>
						<rect x="351.3" y="95" transform="matrix(1 -4.237048e-003 4.237048e-003 1 -0.4099 1.5)" class="st3" width="5" height="5"/>
					</g>
					<g>
						
							<rect x="350.7" y="169.7" transform="matrix(1 -4.260750e-003 4.260750e-003 1 -0.7303 1.5066)" class="st3" width="5" height="5"/>
					</g>
					<g>
						
							<rect x="184.5" y="164.1" transform="matrix(1 -4.261055e-003 4.261055e-003 1 -0.7082 0.7982)" class="st3" width="5" height="5"/>
					</g>
					<g>
						
							<rect x="268.9" y="95.8" transform="matrix(4.233264e-003 1 -1 4.233264e-003 366.7988 -173.458)" class="st3" width="3.3" height="3.3"/>
					</g>
					<g>
						
							<rect x="182.9" y="131.6" transform="matrix(4.230656e-003 1 -1 4.230656e-003 317.0168 -51.8887)" class="st3" width="3.3" height="3.3"/>
					</g>
					<g>
						
							<rect x="352" y="128.8" transform="matrix(4.232957e-003 1 -1 4.232957e-003 482.5747 -223.7825)" class="st3" width="3.3" height="3.3"/>
					</g>
					<g>
						
							<rect x="267" y="167.8" transform="matrix(4.233264e-003 1 -1 4.233264e-003 436.8979 -99.9669)" class="st3" width="3.3" height="3.3"/>
					</g>
					<g>
						<g>
							<path class="st3" d="M353.8,97.5c0,0-0.3,0-0.9,0c-0.6,0-1.4,0-2.5,0c-2.2,0-5.4,0-9.5,0c-8.3-0.1-20.3-0.1-35.5-0.2
								c-30.2-0.3-72.7-0.7-122.1-1.1l0.7-0.7c0.8,22.1,1.6,46.1,2.5,71c0,0.2,0,0.5,0,0.7l-0.7-0.7c64.9,1.7,123.8,3.3,166.9,4.4
								l-0.5,0.5c0.5-22.8,0.8-41.2,1.1-53.9c0.2-6.4,0.3-11.4,0.4-14.8c0.1-1.7,0.1-3,0.1-3.9c0-0.4,0-0.8,0-1
								C353.8,97.6,353.8,97.5,353.8,97.5c0,0,0,0.4,0,1.2c0,0.9,0,2.1,0,3.8c0,3.4-0.1,8.3-0.1,14.6c-0.1,12.8-0.3,31.4-0.5,54.2
								l0,0.5l-0.5,0c-43.1-1-102-2.4-166.9-4l-0.7,0l0-0.7c0-0.2,0-0.5,0-0.7c-0.8-24.9-1.7-48.9-2.4-71l0-0.7l0.7,0
								c49.6,0.7,92.2,1.4,122.6,1.8c15.1,0.3,27.1,0.5,35.3,0.6c4.1,0.1,7.2,0.2,9.4,0.2c1,0,1.8,0.1,2.4,0.1
								C353.6,97.5,353.8,97.5,353.8,97.5z"/>
						</g>
					</g>
					<g>
						<polygon class="st1" points="355.8,177.4 358.6,190 360.7,185.7 365.7,184.9 						"/>
					</g>
				</g>
				<g>
					<rect x="309.2" y="184.8" class="st4" width="6.7" height="6.7"/>
				</g>
				<g>
					<rect x="318.7" y="184.8" class="st5" width="6.7" height="6.7"/>
				</g>
				<g>
					<rect x="328.3" y="184.8" class="st3" width="6.7" height="6.7"/>
				</g>
				<g>
					<rect x="337.8" y="184.8" class="st1" width="6.7" height="6.7"/>
				</g>
			</g>
			<g>
				<polygon class="st6" points="348.3,165.6 194.6,161.1 192.1,100.3 348.3,102.4 				"/>
			</g>
			<g>
				<polygon class="st0" points="231,142.3 198.7,141.6 197.7,115.2 231,115.6 				"/>
			</g>
		</g>
	</g>
	<g>
		<g>
			<polygon class="st3" points="389.4,181.1 393.7,231.9 435.5,232.6 432.3,184 			"/>
		</g>
		<g>
			<polygon class="st1" points="389.1,178.9 389.6,184.1 432.4,185.6 432.2,180.6 			"/>
		</g>
		<g>
			<polygon class="st1" points="400,193.4 402.2,221.5 426.4,222.7 425.1,193.6 			"/>
		</g>
		<g>
			<g>
				<path class="st5" d="M423.6,216.2c0,0.1-2,0.3-5.2,0.3c-3.2,0.1-7.7,0.1-12.7,0.1l-0.5,0l0-0.5c-0.1-0.5-0.1-1.1-0.2-1.7
					c-0.5-5.4-0.9-10.3-1.1-13.8c-0.2-3.5-0.3-5.7-0.1-5.8c0.1,0,0.5,2.2,0.9,5.7c0.4,3.5,0.9,8.4,1.4,13.8c0.1,0.6,0.1,1.2,0.2,1.7
					l-0.5-0.5c5,0,9.5,0.1,12.7,0.2C421.7,216,423.6,216.1,423.6,216.2z"/>
			</g>
		</g>
		<g>
			<g>
				<g>
					
						<ellipse transform="matrix(0.6158 -0.7879 0.7879 0.6158 -17.044 402.1801)" class="st4" cx="403.8" cy="218.6" rx="1" ry="0.5"/>
				</g>
			</g>
			<g>
				<g>
					
						<ellipse transform="matrix(0.6157 -0.7879 0.7879 0.6157 -9.8821 403.7112)" class="st4" cx="409" cy="212" rx="2.4" ry="0.5"/>
				</g>
			</g>
			<g>
				<g>
					
						<ellipse transform="matrix(0.6158 -0.7879 0.7879 0.6158 -1.5386 405.4751)" class="st4" cx="415" cy="204.3" rx="2.4" ry="0.5"/>
				</g>
			</g>
			<g>
				<g>
					<ellipse transform="matrix(0.6157 -0.788 0.788 0.6157 5.6328 407.0246)" class="st4" cx="420.1" cy="197.7" rx="1" ry="0.5"/>
				</g>
			</g>
		</g>
		<g>
			<polygon class="st4" points="392.3,186.6 392.6,188.8 402.1,189 402.4,186.6 			"/>
		</g>
	</g>
	<g>
		<g>
			<g>
				<g>
					<path class="st4" d="M110.7,284.5v-5.9c0,0-0.2-7.5,9.8-8.2c10.1-0.7,45.3-0.1,45.3-0.1s10.5-0.3,10.5,6.4c0,4,0,8,0,8
						L110.7,284.5z"/>
					<path class="st7" d="M110.7,284.5v-5.9c0,0-0.2-7.5,9.8-8.2c10.1-0.7,45.3-0.1,45.3-0.1s10.5-0.3,10.5,6.4c0,4,0,8,0,8
						L110.7,284.5z"/>
				</g>
				<g>
					<path class="st1" d="M110.7,284.5c0,0,30.6,1.9,32.2,8h5.7c0,0,3.7-6.3,27.7-7.7L110.7,284.5z"/>
				</g>
			</g>
			<g>
				<path class="st1" d="M121.2,444H169l-18.2-12l-0.2-69.7h8.9v-1.9h-8.9l-0.1-19.7l-1.7-4.7l-0.2-51.4H143c-0.2,1,0,51.3,0,51.3
					l-1.7,4.4v20h-14.5v1.9h14.5V432L121.2,444z"/>
			</g>
		</g>
		<g>
			<g>
				<path class="st1" d="M138.4,180.4c-4.4,3.6-10.4,5.2-16,4.4c-5.6-0.9-10.8-4.3-13.8-9.1c-1.8-2.9-2.9-6.3-2.4-9.7
					c0.5-3.4,2.8-6.6,6-7.6c1.3-0.4,2.7-0.5,4-0.8c1.3-0.4,2.6-1.1,3.1-2.4c0.6-1.6-0.3-3.4,0-5.1c0.5-2.8,3.7-4,5.4-6.2
					c2.3-2.9,1.6-7.1,0.8-10.7l2.5-2.1L138.4,180.4z"/>
			</g>
			<g>
				<path class="st8" d="M174,185.7c0,0,20.8,28.5,21.9,29.2c3.6,2.3,39.8,16.3,39.8,16.3l-2,12.5c0,0-46.2-13.1-48.9-15.1
					c-2.7-1.9-21.6-30.4-21.6-30.4L174,185.7z"/>
			</g>
			<g>
				<g>
					<g>
						<g>
							<path class="st4" d="M104.9,201.1l1.8-23.2c2.9-16.3,23.8-14.9,23.8-14.9l18-0.3c0,0,12.5,0.4,19.6,10.5
								c5.8,8.2,12.1,16.9,12.1,16.9l-13.4,13.6l-4.7-8.2c0,0,2.6,2.9,2.1,7.8c-0.5,6.2-5.1,7.4-5.1,7.4l2,42.1l-56.7-0.5l9.4-21.6
								l-1.8-30.3L104.9,201.1z"/>
						</g>
					</g>
				</g>
				<g>
					<g>
						<g>
							<g>
								<path class="st4" d="M126.8,201.3c0.5-0.1,1,0.6,1.3,1.5c0.3,0.9,0.2,1.7-0.3,2c-0.5,0.2-1.2-0.4-1.5-1.4
									C126,202.3,126.3,201.4,126.8,201.3z"/>
							</g>
						</g>
						<g>
							<g>
								<path class="st4" d="M128.5,178.8c0.5,0.1,0.8,1.7,0.6,3.7c-0.2,2-0.7,3.5-1.2,3.5c-0.5,0-0.8-1.7-0.6-3.7
									C127.5,180.3,128,178.8,128.5,178.8z"/>
							</g>
						</g>
						<g>
							<g>
								<path class="st4" d="M125.2,194.8c-0.5,0-0.9-0.6-0.6-1.3c0.3-0.6,1-0.7,1.4-0.4c0.3,0.4,0.4,0.9,0.3,1.2
									C126.2,194.6,125.7,194.8,125.2,194.8z"/>
							</g>
						</g>
						<g>
							<g>
								
									<ellipse transform="matrix(0.1907 -0.9817 0.9817 0.1907 -66.5101 284.7245)" class="st4" cx="139.4" cy="182.7" rx="2" ry="0.9"/>
							</g>
						</g>
						<g>
							<g>
								<path class="st4" d="M155.6,182.4c0.1,0.5-0.8,1.1-1.9,1c-1.1-0.1-1.9-0.8-1.7-1.2c0.2-0.5,1-0.7,1.9-0.6
									C154.8,181.7,155.6,181.9,155.6,182.4z"/>
							</g>
						</g>
						<g>
							<g>
								
									<ellipse transform="matrix(0.6084 -0.7936 0.7936 0.6084 -80.421 194.1104)" class="st4" cx="156.5" cy="178.5" rx="0.9" ry="2.4"/>
							</g>
						</g>
						<g>
							<g>
								<path class="st4" d="M161.1,178.2c-0.5,0-0.9-1.3-0.5-2.7c0.4-1.5,1.4-2.4,1.8-2.1c0.4,0.3,0.3,1.4,0,2.6
									C162,177.1,161.6,178.2,161.1,178.2z"/>
							</g>
						</g>
						<g>
							<g>
								
									<ellipse transform="matrix(0.677 -0.736 0.736 0.677 -78.0206 179.3759)" class="st4" cx="165.4" cy="178.6" rx="2.2" ry="0.9"/>
							</g>
						</g>
						<g>
							<g>
								
									<ellipse transform="matrix(0.1774 -0.9841 0.9841 0.1774 -47.939 310.6042)" class="st4" cx="161.8" cy="184" rx="0.9" ry="2.4"/>
							</g>
						</g>
						<g>
							<g>
								
									<ellipse transform="matrix(0.2162 -0.9763 0.9763 0.2162 -62.8486 287.2509)" class="st4" cx="147.5" cy="182.8" rx="0.9" ry="2"/>
							</g>
						</g>
						<g>
							<g>
								
									<ellipse transform="matrix(0.5034 -0.864 0.864 0.5034 -78.9267 217.6911)" class="st4" cx="149.9" cy="177.5" rx="0.9" ry="1.9"/>
							</g>
						</g>
						<g>
							<g>
								<path class="st4" d="M158.3,174.9c-0.4,0.2-1.3-0.5-1.6-1.7c-0.3-1.2,0.2-2.2,0.7-2.2c0.5,0,0.9,0.8,1.1,1.8
									C158.7,173.7,158.7,174.6,158.3,174.9z"/>
							</g>
						</g>
						<g>
							<g>
								
									<ellipse transform="matrix(0.4627 -0.8865 0.8865 0.4627 -64.7862 240.1493)" class="st4" cx="165.7" cy="173.5" rx="1.2" ry="0.9"/>
							</g>
						</g>
						<g>
							<g>
								
									<ellipse transform="matrix(0.9657 -0.2598 0.2598 0.9657 -40.8878 50.2775)" class="st4" cx="169.7" cy="179.8" rx="1.3" ry="0.9"/>
							</g>
						</g>
						<g>
							<g>
								<path class="st4" d="M149.2,170.3c0.3-0.4,1.6-0.1,2.6,1.1c1,1.1,1.3,2.4,0.8,2.7c-0.5,0.2-1.3-0.5-2.2-1.4
									C149.6,171.6,149,170.7,149.2,170.3z"/>
							</g>
						</g>
						<g>
							<g>
								
									<ellipse transform="matrix(1 -1.737888e-003 1.737888e-003 1 -0.2939 0.2798)" class="st4" cx="160.9" cy="169.3" rx="0.9" ry="1.4"/>
							</g>
						</g>
						<g>
							<g>
								
									<ellipse transform="matrix(0.3218 -0.9468 0.9468 0.3218 -71.521 256.7109)" class="st4" cx="143.4" cy="178.3" rx="0.9" ry="2.4"/>
							</g>
						</g>
						<g>
							<g>
								
									<ellipse transform="matrix(0.7049 -0.7093 0.7093 0.7049 -79.3511 153.9752)" class="st4" cx="145.4" cy="172.4" rx="0.9" ry="1.4"/>
							</g>
						</g>
						<g>
							<g>
								
									<ellipse transform="matrix(0.9973 -7.388947e-002 7.388947e-002 0.9973 -11.9571 11.8945)" class="st4" cx="154.8" cy="167.6" rx="0.9" ry="1.7"/>
							</g>
						</g>
						<g>
							<g>
								
									<ellipse transform="matrix(0.3612 -0.9325 0.9325 0.3612 -82.631 237.3923)" class="st4" cx="131.9" cy="179" rx="2.2" ry="0.9"/>
							</g>
						</g>
						<g>
							<g>
								
									<ellipse transform="matrix(0.9822 -0.1876 0.1876 0.9822 -31.092 28.7799)" class="st4" cx="136.5" cy="178.7" rx="0.9" ry="2.1"/>
							</g>
						</g>
						<g>
							<g>
								
									<ellipse transform="matrix(5.384593e-002 -0.9985 0.9985 5.384593e-002 -40.9812 306.2747)" class="st4" cx="141.1" cy="174.8" rx="0.9" ry="2.1"/>
							</g>
						</g>
						<g>
							<g>
								
									<ellipse transform="matrix(0.9771 -0.2128 0.2128 0.9771 -34.2442 31.2471)" class="st4" cx="128.1" cy="174.7" rx="1.8" ry="0.9"/>
							</g>
						</g>
						<g>
							<g>
								
									<ellipse transform="matrix(0.9359 -0.3523 0.3523 0.9359 -52.3171 58.5276)" class="st4" cx="134.6" cy="173" rx="1.5" ry="0.9"/>
							</g>
						</g>
						<g>
							<g>
								<path class="st4" d="M130.5,170.8c0.1,0.5-1.3,1.1-3.1,0.9c-1.8-0.1-3.1-0.9-2.9-1.4c0.1-0.5,1.5-0.6,3.1-0.4
									C129.1,170,130.4,170.3,130.5,170.8z"/>
							</g>
						</g>
						<g>
							<g>
								
									<ellipse transform="matrix(0.3991 -0.9169 0.9169 0.3991 -74.7422 220.2461)" class="st4" cx="130.7" cy="167.1" rx="0.9" ry="3.1"/>
							</g>
						</g>
						<g>
							<g>
								<path class="st4" d="M150.5,166.1c0.2,0.5-0.3,1.2-1.1,1.7c-0.8,0.5-1.6,0.7-2,0.4c-0.3-0.4,0-1.3,1-1.9
									C149.3,165.6,150.3,165.6,150.5,166.1z"/>
							</g>
						</g>
						<g>
							<g>
								
									<ellipse transform="matrix(0.3663 -0.9305 0.9305 0.3663 -77.0737 219.9818)" class="st4" cx="123" cy="166.6" rx="0.9" ry="1.4"/>
							</g>
						</g>
						<g>
							<g>
								
									<ellipse transform="matrix(0.9995 -3.286844e-002 3.286844e-002 0.9995 -7.1164 4.9506)" class="st4" cx="147" cy="218.9" rx="2.8" ry="0.9"/>
							</g>
						</g>
						<g>
							<g>
								
									<ellipse transform="matrix(0.7186 -0.6954 0.6954 0.7186 -106.3825 165.3209)" class="st4" cx="151.1" cy="214.1" rx="0.9" ry="2.1"/>
							</g>
						</g>
						<g>
							<g>
								<path class="st4" d="M155.2,214c-0.5,0.1-1.1-0.9-1-2.3c0.1-1.4,0.9-2.3,1.3-2.1c0.5,0.2,0.6,1.2,0.5,2.3
									C156,212.9,155.7,213.9,155.2,214z"/>
							</g>
						</g>
						<g>
							<g>
								<path class="st4" d="M157.4,216.3c0.3,0.4,0.1,1.2-0.5,1.8c-0.6,0.6-1.4,1-1.8,0.7c-0.4-0.3-0.3-1.2,0.4-1.9
									C156.2,216.2,157.1,215.9,157.4,216.3z"/>
							</g>
						</g>
						<g>
							<g>
								<path class="st4" d="M156.3,224.2c-0.5,0-0.9-0.8-0.7-1.7c0.2-0.9,0.8-1.5,1.3-1.4c0.5,0.2,0.7,0.9,0.5,1.7
									C157.2,223.6,156.8,224.2,156.3,224.2z"/>
							</g>
						</g>
						<g>
							<g>
								<path class="st4" d="M151.8,221.3c0.4,0.3,0.5,0.8,0.4,1.1c-0.1,0.3-0.6,0.4-1.1,0.3c-0.5-0.1-0.8-0.6-0.5-1.1
									C150.8,221,151.4,220.9,151.8,221.3z"/>
							</g>
						</g>
						<g>
							<g>
								<path class="st4" d="M159.5,207.6c0.5,0.2,0.5,1.3-0.2,2.5c-0.6,1.2-1.6,1.7-2,1.4c-0.4-0.3-0.1-1.3,0.4-2.3
									C158.3,208.2,159,207.4,159.5,207.6z"/>
							</g>
						</g>
						<g>
							<g>
								
									<ellipse transform="matrix(0.9984 -5.592671e-002 5.592671e-002 0.9984 -11.3507 8.9042)" class="st4" cx="153.4" cy="207.2" rx="2.3" ry="0.9"/>
							</g>
						</g>
						<g>
							<g>
								
									<ellipse transform="matrix(0.7807 -0.625 0.625 0.7807 -101.7565 138.633)" class="st4" cx="146.6" cy="214.3" rx="0.9" ry="1.4"/>
							</g>
						</g>
						<g>
							<g>
								<path class="st4" d="M140,219.3c-0.3,0.4-1.5-0.2-2.3-1.5c-0.8-1.3-0.7-2.6-0.2-2.7c0.5-0.1,1.2,0.7,1.8,1.8
									C139.9,217.9,140.3,218.9,140,219.3z"/>
							</g>
						</g>
						<g>
							<g>
								
									<ellipse transform="matrix(0.2553 -0.9669 0.9669 0.2553 -111.3354 293.1829)" class="st4" cx="134.7" cy="218.9" rx="0.9" ry="1.4"/>
							</g>
						</g>
						<g>
							<g>
								
									<ellipse transform="matrix(0.144 -0.9896 0.9896 0.144 -147.2686 318.5204)" class="st4" cx="110.5" cy="244.4" rx="2.6" ry="0.9"/>
							</g>
						</g>
						<g>
							<g>
								
									<ellipse transform="matrix(0.9054 -0.4245 0.4245 0.9054 -92.3574 72.1558)" class="st4" cx="115.8" cy="243.4" rx="0.9" ry="3.1"/>
							</g>
						</g>
						<g>
							<g>
								<path class="st4" d="M123.2,241.8c-0.3,0.4-1.6-0.2-3-1.2c-1.4-1-2.3-2-2.1-2.5c0.3-0.4,1.7-0.1,3.1,1
									C122.7,240.2,123.5,241.5,123.2,241.8z"/>
							</g>
						</g>
						<g>
							<g>
								
									<ellipse transform="matrix(0.3741 -0.9274 0.9274 0.3741 -148.4082 252.8292)" class="st4" cx="113.1" cy="236.4" rx="1.9" ry="0.9"/>
							</g>
						</g>
						<g>
							<g>
								
									<ellipse transform="matrix(0.7972 -0.6037 0.6037 0.7972 -123.5218 123.6241)" class="st4" cx="122.2" cy="245.7" rx="0.9" ry="2"/>
							</g>
						</g>
						<g>
							<g>
								
									<ellipse transform="matrix(0.99 -0.1408 0.1408 0.99 -33.7524 18.3931)" class="st4" cx="113.1" cy="247.7" rx="0.9" ry="1.5"/>
							</g>
						</g>
						<g>
							<g>
								<path class="st4" d="M132.9,239.8c-0.1,0.5-1.8,0.6-3.6,0.2c-1.9-0.4-3.3-1.1-3.3-1.6c0.1-0.5,1.7-0.6,3.6-0.2
									C131.5,238.6,133,239.3,132.9,239.8z"/>
							</g>
						</g>
						<g>
							<g>
								
									<ellipse transform="matrix(0.6359 -0.7718 0.7718 0.6359 -142.0757 189.0997)" class="st4" cx="129.4" cy="245.1" rx="0.9" ry="3.1"/>
							</g>
						</g>
						<g>
							<g>
								
									<ellipse transform="matrix(0.2968 -0.9549 0.9549 0.2968 -137.584 301.8573)" class="st4" cx="136.2" cy="244.3" rx="0.9" ry="2.3"/>
							</g>
						</g>
						<g>
							<g>
								<path class="st4" d="M143.6,246.2c0,0.5-0.7,1-1.6,1.4c-0.8,0.4-1.7,0.6-2,0.3c-0.4-0.3,0.1-1.4,1.3-2
									C142.5,245.4,143.6,245.7,143.6,246.2z"/>
							</g>
						</g>
						<g>
							<g>
								
									<ellipse transform="matrix(0.4886 -0.8725 0.8725 0.4886 -138.4286 245.537)" class="st4" cx="140.2" cy="240.9" rx="0.9" ry="2"/>
							</g>
						</g>
						<g>
							<g>
								<path class="st4" d="M147.4,241.3c0.2,0.5,0,1.1-0.3,1.6c-0.4,0.5-0.8,0.9-1.4,0.9c-0.5,0-0.8-1-0.2-1.9
									C146.1,240.9,147.1,240.8,147.4,241.3z"/>
							</g>
						</g>
						<g>
							<g>
								
									<ellipse transform="matrix(0.9995 -3.122728e-002 3.122728e-002 0.9995 -7.5922 4.8245)" class="st4" cx="150.7" cy="245.5" rx="2.2" ry="0.9"/>
							</g>
						</g>
						<g>
							<g>
								
									<ellipse transform="matrix(0.3952 -0.9186 0.9186 0.3952 -130.1539 285.6835)" class="st4" cx="151.9" cy="241.7" rx="0.9" ry="1.9"/>
							</g>
						</g>
						<g>
							<g>
								<path class="st4" d="M157.4,243.9c-0.5-0.1-0.8-0.8-0.5-1.7c0.3-0.8,1-1.2,1.5-0.9c0.4,0.3,0.5,1,0.3,1.6
									C158.4,243.5,157.9,244,157.4,243.9z"/>
							</g>
						</g>
						<g>
							<g>
								
									<ellipse transform="matrix(0.8352 -0.55 0.55 0.8352 -87.4731 103.4273)" class="st4" cx="128.8" cy="197.7" rx="0.9" ry="2.4"/>
							</g>
						</g>
						<g>
							<g>
								
									<ellipse transform="matrix(0.5384 -0.8427 0.8427 0.5384 -103.8445 203.3377)" class="st4" cx="133.7" cy="196.5" rx="2.9" ry="0.9"/>
							</g>
						</g>
						<g>
							<g>
								
									<ellipse transform="matrix(0.9361 -0.3517 0.3517 0.9361 -61.5701 61.068)" class="st4" cx="137.3" cy="200" rx="2.4" ry="0.9"/>
							</g>
						</g>
						<g>
							<g>
								<path class="st4" d="M138.4,207.5c-0.3,0.4-1.4,0.1-2.4-0.8c-1-0.9-1.4-2-1-2.3c0.4-0.3,1.4,0.2,2.3,1
									C138.2,206.1,138.7,207.1,138.4,207.5z"/>
							</g>
						</g>
						<g>
							<g>
								<path class="st4" d="M131.6,210.8c-0.5,0.1-1.2-1.2-1.1-2.9c0.1-1.7,1-2.9,1.4-2.7c0.5,0.2,0.5,1.4,0.4,2.9
									C132.2,209.4,132.1,210.6,131.6,210.8z"/>
							</g>
						</g>
						<g>
							<g>
								
									<ellipse transform="matrix(0.2704 -0.9627 0.9627 0.2704 -98.3642 274.8737)" class="st4" cx="132.2" cy="202.3" rx="0.9" ry="1.6"/>
							</g>
						</g>
						<g>
							<g>
								<path class="st4" d="M140.8,193.3c0.4,0.3,0,1.6-1.2,2.6c-1.2,1.1-2.5,1.4-2.7,0.9c-0.3-0.4,0.5-1.4,1.5-2.3
									C139.4,193.6,140.4,193,140.8,193.3z"/>
							</g>
						</g>
						<g>
							<g>
								<path class="st4" d="M130.5,190.2c0.5-0.1,1.1,0.8,1.2,2c0.1,1.2-0.5,2.2-1,2.1c-0.5-0.1-0.8-1-0.9-2
									C129.8,191.2,130,190.3,130.5,190.2z"/>
							</g>
						</g>
						<g>
							<g>
								<path class="st4" d="M137.3,186.9c0.5,0.1,0.6,1.3,0.1,2.5c-0.5,1.3-1.4,2-1.8,1.8c-0.4-0.3-0.3-1.3,0.1-2.4
									C136.2,187.6,136.8,186.8,137.3,186.9z"/>
							</g>
						</g>
						<g>
							<g>
								
									<ellipse transform="matrix(0.9954 -9.592601e-002 9.592601e-002 0.9954 -18.3698 14.738)" class="st4" cx="144.1" cy="198.4" rx="1.8" ry="0.9"/>
							</g>
						</g>
						<g>
							<g>
								<path class="st4" d="M143.2,204.9c-0.2,0.5-1.2,0.6-2.3,0.2c-1.1-0.4-1.9-1.1-1.7-1.5c0.1-0.5,1.2-0.6,2.3-0.2
									C142.6,203.7,143.4,204.4,143.2,204.9z"/>
							</g>
						</g>
						<g>
							<g>
								<path class="st4" d="M136.1,212.3c-0.4,0.2-1.3-0.4-1.6-1.6c-0.3-1.1,0-2.2,0.5-2.2c0.5,0,1,0.7,1.3,1.7
									C136.5,211.2,136.5,212.1,136.1,212.3z"/>
							</g>
						</g>
						<g>
							<g>
								
									<ellipse transform="matrix(0.9983 -5.791754e-002 5.791754e-002 0.9983 -12.2419 7.9641)" class="st4" cx="131.3" cy="215.2" rx="0.9" ry="1.6"/>
							</g>
						</g>
						<g>
							<g>
								<path class="st4" d="M143.1,214.5c-0.5,0.2-1.3-0.6-2-1.6c-0.7-1.1-1.1-2.1-0.7-2.5c0.4-0.3,1.5,0.3,2.2,1.5
									C143.4,213.1,143.5,214.3,143.1,214.5z"/>
							</g>
						</g>
						<g>
							<g>
								<path class="st4" d="M148.5,210.2c-0.3,0.4-1.4,0.3-2.7-0.3c-1.3-0.5-2.2-1.2-2.1-1.7c0.1-0.5,1.4-0.6,2.8,0
									C147.9,208.8,148.7,209.7,148.5,210.2z"/>
							</g>
						</g>
						<g>
							<g>
								<path class="st4" d="M148.8,204.7c-0.4,0.3-1.1,0.2-1.6-0.1c-0.6-0.3-1-0.8-1-1.3c0-0.5,0.9-0.9,1.9-0.4
									C149,203.5,149.3,204.4,148.8,204.7z"/>
							</g>
						</g>
						<g>
							<g>
								<path class="st4" d="M133.5,182.5c0.5,0.1,0.7,1.2,0.6,2.6c-0.1,1.4-0.6,2.5-1.1,2.4c-0.5,0-0.9-1.2-0.8-2.6
									C132.4,183.5,133,182.4,133.5,182.5z"/>
							</g>
						</g>
						<g>
							<g>
								
									<ellipse transform="matrix(0.6675 -0.7446 0.7446 0.6675 -92.782 168.7228)" class="st4" cx="142.5" cy="188.3" rx="2.4" ry="0.9"/>
							</g>
						</g>
						<g>
							<g>
								
									<ellipse transform="matrix(0.801 -0.5987 0.5987 0.801 -84.4375 125.2825)" class="st4" cx="146.2" cy="189.6" rx="0.9" ry="0.8"/>
							</g>
						</g>
						<g>
							<g>
								<path class="st4" d="M117.4,185.4c-0.2,0.5-1.5,0.5-2.9-0.2c-1.4-0.6-2.2-1.6-2-2c0.3-0.4,1.5-0.2,2.8,0.4
									C116.6,184.2,117.5,184.9,117.4,185.4z"/>
							</g>
						</g>
						<g>
							<g>
								<path class="st4" d="M111.6,195.5c-0.5,0.2-1.2-0.5-1.5-1.6c-0.3-1.1,0-2.1,0.5-2.1c0.5-0.1,1,0.7,1.3,1.7
									C112.2,194.4,112.1,195.3,111.6,195.5z"/>
							</g>
						</g>
						<g>
							<g>
								
									<ellipse transform="matrix(0.7515 -0.6598 0.6598 0.7515 -95.8121 124.6267)" class="st4" cx="117.5" cy="189.5" rx="0.9" ry="2.1"/>
							</g>
						</g>
						<g>
							<g>
								
									<ellipse transform="matrix(0.7018 -0.7124 0.7124 0.7018 -92.9936 133.786)" class="st4" cx="113.3" cy="178" rx="3" ry="0.9"/>
							</g>
						</g>
						<g>
							<g>
								
									<ellipse transform="matrix(0.3304 -0.9439 0.9439 0.3304 -92.672 220.7906)" class="st4" cx="109.3" cy="175.7" rx="2.2" ry="0.9"/>
							</g>
						</g>
						<g>
							<g>
								<path class="st4" d="M110.2,182.5c0.3,0.4-0.1,1.2-0.8,1.9c-0.7,0.7-1.4,1.1-1.9,0.9c-0.4-0.3-0.3-1.3,0.6-2.2
									C108.9,182.2,109.9,182.1,110.2,182.5z"/>
							</g>
						</g>
						<g>
							<g>
								<path class="st4" d="M108.1,181.2c-0.5,0.2-1.1-0.2-1.1-0.9c0-0.7,0.5-1.2,1-1c0.5,0.2,0.8,0.6,0.8,0.9
									C108.9,180.6,108.6,181,108.1,181.2z"/>
							</g>
						</g>
						<g>
							<g>
								
									<ellipse transform="matrix(0.9905 -0.1377 0.1377 0.9905 -23.7163 17.7248)" class="st4" cx="116.3" cy="180.3" rx="2.1" ry="0.9"/>
							</g>
						</g>
						<g>
							<g>
								
									<ellipse transform="matrix(0.5803 -0.8144 0.8144 0.5803 -93.4291 164.8866)" class="st4" cx="113.3" cy="173.1" rx="2.2" ry="0.9"/>
							</g>
						</g>
						<g>
							<g>
								<path class="st4" d="M117.9,197.3c-0.4,0.4-1.5-0.2-2.1-1.5c-0.7-1.3-0.5-2.5,0-2.6c0.5-0.1,1.1,0.8,1.6,1.8
									C117.9,196,118.3,197,117.9,197.3z"/>
							</g>
						</g>
						<g>
							<g>
								<path class="st4" d="M107.3,199.2c-0.5,0.1-1-0.7-0.9-1.8c0.1-1,0.7-1.7,1.2-1.6c0.5,0.1,0.7,0.9,0.7,1.7
									C108.2,198.4,107.9,199.1,107.3,199.2z"/>
							</g>
						</g>
						<g>
							<g>
								
									<ellipse transform="matrix(0.2922 -0.9563 0.9563 0.2922 -110.2755 247.9907)" class="st4" cx="112.4" cy="198.5" rx="0.9" ry="1.9"/>
							</g>
						</g>
						<g>
							<g>
								
									<ellipse transform="matrix(0.7468 -0.6651 0.6651 0.7468 -98.9304 130.1992)" class="st4" cx="121.5" cy="195" rx="0.9" ry="2.2"/>
							</g>
						</g>
						<g>
							<g>
								
									<ellipse transform="matrix(0.9983 -5.746388e-002 5.746388e-002 0.9983 -10.3027 7.3382)" class="st4" cx="122.4" cy="182.8" rx="2.5" ry="0.9"/>
							</g>
						</g>
						<g>
							<g>
								
									<ellipse transform="matrix(0.8715 -0.4904 0.4904 0.8715 -70.3148 81.4065)" class="st4" cx="120.2" cy="174.9" rx="2.4" ry="0.9"/>
							</g>
						</g>
						<g>
							<g>
								
									<ellipse transform="matrix(0.4677 -0.8839 0.8839 0.4677 -91.0692 189.0618)" class="st4" cx="111.4" cy="170.1" rx="1.3" ry="0.9"/>
							</g>
						</g>
						<g>
							<g>
								
									<ellipse transform="matrix(0.6907 -0.7231 0.7231 0.6907 -86.4593 138.6623)" class="st4" cx="118.9" cy="170.4" rx="2.2" ry="0.9"/>
							</g>
						</g>
						<g>
							<g>
								
									<ellipse transform="matrix(0.9824 -0.1868 0.1868 0.9824 -31.16 26.2239)" class="st4" cx="123.5" cy="178.4" rx="2.1" ry="0.9"/>
							</g>
						</g>
						<g>
							<g>
								<path class="st4" d="M126.3,190.2c-0.3,0.4-1.4,0.2-2.5-0.4c-1.1-0.6-1.9-1.4-1.7-1.9c0.2-0.5,1.4-0.4,2.6,0.3
									C125.9,188.9,126.6,189.8,126.3,190.2z"/>
							</g>
						</g>
						<g>
							<g>
								
									<ellipse transform="matrix(0.3 -0.9539 0.9539 0.3 -81.1016 285.7739)" class="st4" cx="154.2" cy="198.1" rx="0.9" ry="2.7"/>
							</g>
						</g>
						<g>
							<g>
								
									<ellipse transform="matrix(0.6623 -0.7492 0.7492 0.6623 -99.1981 185.1422)" class="st4" cx="155.8" cy="202.6" rx="0.9" ry="1.9"/>
							</g>
						</g>
						<g>
							<g>
								<path class="st4" d="M158,192.6c0.2,0.5-0.9,1.4-2.4,2c-1.5,0.6-2.9,0.7-3.1,0.3c-0.2-0.5,0.9-1.4,2.4-2
									C156.4,192.3,157.8,192.2,158,192.6z"/>
							</g>
						</g>
						<g>
							<g>
								
									<ellipse transform="matrix(0.9996 -2.705059e-002 2.705059e-002 0.9996 -5.2433 4.3563)" class="st4" cx="158.4" cy="196" rx="1.6" ry="0.9"/>
							</g>
						</g>
						<g>
							<g>
								<path class="st4" d="M162.4,202.5c-0.5,0.2-1.2-0.3-1.9-0.9c-0.7-0.6-1.4-1.1-1.4-1.6c0-0.2,0.3-0.4,0.8-0.4
									c0.5,0,1.1,0.2,1.7,0.6c0.6,0.4,0.9,1,1,1.5C162.7,202,162.6,202.4,162.4,202.5z"/>
							</g>
						</g>
						<g>
							<g>
								
									<ellipse transform="matrix(0.7876 -0.6162 0.6162 0.7876 -92.4607 142.9122)" class="st4" cx="161.1" cy="205.6" rx="0.9" ry="2.2"/>
							</g>
						</g>
						<g>
							<g>
								
									<ellipse transform="matrix(0.4941 -0.8694 0.8694 0.4941 -95.2729 225.8804)" class="st4" cx="146.5" cy="194.8" rx="0.9" ry="3.1"/>
							</g>
						</g>
						<g>
							<g>
								
									<ellipse transform="matrix(0.9988 -4.991675e-002 4.991675e-002 0.9988 -9.2539 7.7177)" class="st4" cx="149.9" cy="189.1" rx="0.9" ry="3.3"/>
							</g>
						</g>
						<g>
							<g>
								
									<ellipse transform="matrix(0.7892 -0.6142 0.6142 0.7892 -83.2022 135.1638)" class="st4" cx="155.3" cy="188.8" rx="2.6" ry="0.9"/>
							</g>
						</g>
						<g>
							<g>
								
									<ellipse transform="matrix(0.9715 -0.237 0.237 0.9715 -40.2672 43.8307)" class="st4" cx="162.2" cy="189.4" rx="2.7" ry="0.9"/>
							</g>
						</g>
						<g>
							<g>
								
									<ellipse transform="matrix(0.2902 -0.957 0.957 0.2902 -68.9214 295.3492)" class="st4" cx="164.6" cy="194.1" rx="0.9" ry="2.3"/>
							</g>
						</g>
						<g>
							<g>
								
									<ellipse transform="matrix(0.989 -0.1479 0.1479 0.989 -26.2826 27.2093)" class="st4" cx="169.8" cy="190.3" rx="1.9" ry="0.9"/>
							</g>
						</g>
						<g>
							<g>
								<path class="st4" d="M168.9,196.9c0.2,0.5-0.4,1.2-1.4,1.4c-1,0.2-1.8-0.1-1.9-0.7c0-0.5,0.6-1,1.4-1.1
									C167.9,196.4,168.7,196.5,168.9,196.9z"/>
							</g>
						</g>
						<g>
							<g>
								<path class="st4" d="M171.4,196.1c-0.5,0.2-1.1-0.4-1.1-1.4c0-0.9,0.5-1.6,1-1.5c0.5,0.1,0.8,0.7,0.8,1.4
									C172.1,195.3,171.9,195.9,171.4,196.1z"/>
							</g>
						</g>
						<g>
							<g>
								
									<ellipse transform="matrix(0.1839 -0.9829 0.9829 0.1839 -45.1813 315.9246)" class="st4" cx="167.7" cy="185.2" rx="2.4" ry="0.9"/>
							</g>
						</g>
						<g>
							<g>
								
									<ellipse transform="matrix(9.663580e-002 -0.9953 0.9953 9.663580e-002 -28.0185 338.9406)" class="st4" cx="172.7" cy="184.9" rx="1.6" ry="0.9"/>
							</g>
						</g>
						<g>
							<g>
								
									<ellipse transform="matrix(0.9925 -0.1226 0.1226 0.9925 -21.9143 22.9373)" class="st4" cx="175.5" cy="189.6" rx="0.9" ry="1.9"/>
							</g>
						</g>
						<g>
							<g>
								<path class="st4" d="M107.8,194c-0.5,0-1-1.6-0.9-3.6c0.1-2,0.6-3.6,1.1-3.5c0.5,0,0.8,1.7,0.7,3.6
									C108.6,192.4,108.3,194,107.8,194z"/>
							</g>
						</g>
						<g>
							<g>
								
									<ellipse transform="matrix(0.8432 -0.5376 0.5376 0.8432 -83.7599 89.7151)" class="st4" cx="111.9" cy="188.5" rx="0.9" ry="3.1"/>
							</g>
						</g>
						<g>
							<g>
								
									<ellipse transform="matrix(0.8728 -0.4881 0.4881 0.8728 -79.3323 99.2495)" class="st4" cx="150.8" cy="201.8" rx="0.9" ry="3.4"/>
							</g>
						</g>
					</g>
					<g class="st7">
						<g>
							<g>
								<path class="st0" d="M126.8,201.3c0.5-0.1,1,0.6,1.3,1.5c0.3,0.9,0.2,1.7-0.3,2c-0.5,0.2-1.2-0.4-1.5-1.4
									C126,202.3,126.3,201.4,126.8,201.3z"/>
							</g>
						</g>
						<g>
							<g>
								<path class="st0" d="M128.5,178.8c0.5,0.1,0.8,1.7,0.6,3.7c-0.2,2-0.7,3.5-1.2,3.5c-0.5,0-0.8-1.7-0.6-3.7
									C127.5,180.3,128,178.8,128.5,178.8z"/>
							</g>
						</g>
						<g>
							<g>
								<path class="st0" d="M125.2,194.8c-0.5,0-0.9-0.6-0.6-1.3c0.3-0.6,1-0.7,1.4-0.4c0.3,0.4,0.4,0.9,0.3,1.2
									C126.2,194.6,125.7,194.8,125.2,194.8z"/>
							</g>
						</g>
						<g>
							<g>
								
									<ellipse transform="matrix(0.1907 -0.9817 0.9817 0.1907 -66.5101 284.7245)" class="st0" cx="139.4" cy="182.7" rx="2" ry="0.9"/>
							</g>
						</g>
						<g>
							<g>
								<path class="st0" d="M155.6,182.4c0.1,0.5-0.8,1.1-1.9,1c-1.1-0.1-1.9-0.8-1.7-1.2c0.2-0.5,1-0.7,1.9-0.6
									C154.8,181.7,155.6,181.9,155.6,182.4z"/>
							</g>
						</g>
						<g>
							<g>
								
									<ellipse transform="matrix(0.6084 -0.7936 0.7936 0.6084 -80.421 194.1104)" class="st0" cx="156.5" cy="178.5" rx="0.9" ry="2.4"/>
							</g>
						</g>
						<g>
							<g>
								<path class="st0" d="M161.1,178.2c-0.5,0-0.9-1.3-0.5-2.7c0.4-1.5,1.4-2.4,1.8-2.1c0.4,0.3,0.3,1.4,0,2.6
									C162,177.1,161.6,178.2,161.1,178.2z"/>
							</g>
						</g>
						<g>
							<g>
								
									<ellipse transform="matrix(0.677 -0.736 0.736 0.677 -78.0206 179.3759)" class="st0" cx="165.4" cy="178.6" rx="2.2" ry="0.9"/>
							</g>
						</g>
						<g>
							<g>
								
									<ellipse transform="matrix(0.1774 -0.9841 0.9841 0.1774 -47.939 310.6042)" class="st0" cx="161.8" cy="184" rx="0.9" ry="2.4"/>
							</g>
						</g>
						<g>
							<g>
								
									<ellipse transform="matrix(0.2162 -0.9763 0.9763 0.2162 -62.8486 287.2509)" class="st0" cx="147.5" cy="182.8" rx="0.9" ry="2"/>
							</g>
						</g>
						<g>
							<g>
								
									<ellipse transform="matrix(0.5034 -0.864 0.864 0.5034 -78.9267 217.6911)" class="st0" cx="149.9" cy="177.5" rx="0.9" ry="1.9"/>
							</g>
						</g>
						<g>
							<g>
								<path class="st0" d="M158.3,174.9c-0.4,0.2-1.3-0.5-1.6-1.7c-0.3-1.2,0.2-2.2,0.7-2.2c0.5,0,0.9,0.8,1.1,1.8
									C158.7,173.7,158.7,174.6,158.3,174.9z"/>
							</g>
						</g>
						<g>
							<g>
								
									<ellipse transform="matrix(0.4627 -0.8865 0.8865 0.4627 -64.7862 240.1493)" class="st0" cx="165.7" cy="173.5" rx="1.2" ry="0.9"/>
							</g>
						</g>
						<g>
							<g>
								
									<ellipse transform="matrix(0.9657 -0.2598 0.2598 0.9657 -40.8878 50.2775)" class="st0" cx="169.7" cy="179.8" rx="1.3" ry="0.9"/>
							</g>
						</g>
						<g>
							<g>
								<path class="st0" d="M149.2,170.3c0.3-0.4,1.6-0.1,2.6,1.1c1,1.1,1.3,2.4,0.8,2.7c-0.5,0.2-1.3-0.5-2.2-1.4
									C149.6,171.6,149,170.7,149.2,170.3z"/>
							</g>
						</g>
						<g>
							<g>
								
									<ellipse transform="matrix(1 -1.737888e-003 1.737888e-003 1 -0.2939 0.2798)" class="st0" cx="160.9" cy="169.3" rx="0.9" ry="1.4"/>
							</g>
						</g>
						<g>
							<g>
								
									<ellipse transform="matrix(0.3218 -0.9468 0.9468 0.3218 -71.521 256.7109)" class="st0" cx="143.4" cy="178.3" rx="0.9" ry="2.4"/>
							</g>
						</g>
						<g>
							<g>
								
									<ellipse transform="matrix(0.7049 -0.7093 0.7093 0.7049 -79.3511 153.9752)" class="st0" cx="145.4" cy="172.4" rx="0.9" ry="1.4"/>
							</g>
						</g>
						<g>
							<g>
								
									<ellipse transform="matrix(0.9973 -7.388947e-002 7.388947e-002 0.9973 -11.9571 11.8945)" class="st0" cx="154.8" cy="167.6" rx="0.9" ry="1.7"/>
							</g>
						</g>
						<g>
							<g>
								
									<ellipse transform="matrix(0.3612 -0.9325 0.9325 0.3612 -82.631 237.3923)" class="st0" cx="131.9" cy="179" rx="2.2" ry="0.9"/>
							</g>
						</g>
						<g>
							<g>
								
									<ellipse transform="matrix(0.9822 -0.1876 0.1876 0.9822 -31.092 28.7799)" class="st0" cx="136.5" cy="178.7" rx="0.9" ry="2.1"/>
							</g>
						</g>
						<g>
							<g>
								
									<ellipse transform="matrix(5.384593e-002 -0.9985 0.9985 5.384593e-002 -40.9812 306.2747)" class="st0" cx="141.1" cy="174.8" rx="0.9" ry="2.1"/>
							</g>
						</g>
						<g>
							<g>
								
									<ellipse transform="matrix(0.9771 -0.2128 0.2128 0.9771 -34.2442 31.2471)" class="st0" cx="128.1" cy="174.7" rx="1.8" ry="0.9"/>
							</g>
						</g>
						<g>
							<g>
								
									<ellipse transform="matrix(0.9359 -0.3523 0.3523 0.9359 -52.3171 58.5276)" class="st0" cx="134.6" cy="173" rx="1.5" ry="0.9"/>
							</g>
						</g>
						<g>
							<g>
								<path class="st0" d="M130.5,170.8c0.1,0.5-1.3,1.1-3.1,0.9c-1.8-0.1-3.1-0.9-2.9-1.4c0.1-0.5,1.5-0.6,3.1-0.4
									C129.1,170,130.4,170.3,130.5,170.8z"/>
							</g>
						</g>
						<g>
							<g>
								
									<ellipse transform="matrix(0.3991 -0.9169 0.9169 0.3991 -74.7422 220.2461)" class="st0" cx="130.7" cy="167.1" rx="0.9" ry="3.1"/>
							</g>
						</g>
						<g>
							<g>
								<path class="st0" d="M150.5,166.1c0.2,0.5-0.3,1.2-1.1,1.7c-0.8,0.5-1.6,0.7-2,0.4c-0.3-0.4,0-1.3,1-1.9
									C149.3,165.6,150.3,165.6,150.5,166.1z"/>
							</g>
						</g>
						<g>
							<g>
								
									<ellipse transform="matrix(0.3663 -0.9305 0.9305 0.3663 -77.0737 219.9818)" class="st0" cx="123" cy="166.6" rx="0.9" ry="1.4"/>
							</g>
						</g>
						<g>
							<g>
								
									<ellipse transform="matrix(0.9995 -3.286844e-002 3.286844e-002 0.9995 -7.1164 4.9506)" class="st0" cx="147" cy="218.9" rx="2.8" ry="0.9"/>
							</g>
						</g>
						<g>
							<g>
								
									<ellipse transform="matrix(0.7186 -0.6954 0.6954 0.7186 -106.3825 165.3209)" class="st0" cx="151.1" cy="214.1" rx="0.9" ry="2.1"/>
							</g>
						</g>
						<g>
							<g>
								<path class="st0" d="M155.2,214c-0.5,0.1-1.1-0.9-1-2.3c0.1-1.4,0.9-2.3,1.3-2.1c0.5,0.2,0.6,1.2,0.5,2.3
									C156,212.9,155.7,213.9,155.2,214z"/>
							</g>
						</g>
						<g>
							<g>
								<path class="st0" d="M157.4,216.3c0.3,0.4,0.1,1.2-0.5,1.8c-0.6,0.6-1.4,1-1.8,0.7c-0.4-0.3-0.3-1.2,0.4-1.9
									C156.2,216.2,157.1,215.9,157.4,216.3z"/>
							</g>
						</g>
						<g>
							<g>
								<path class="st0" d="M156.3,224.2c-0.5,0-0.9-0.8-0.7-1.7c0.2-0.9,0.8-1.5,1.3-1.4c0.5,0.2,0.7,0.9,0.5,1.7
									C157.2,223.6,156.8,224.2,156.3,224.2z"/>
							</g>
						</g>
						<g>
							<g>
								<path class="st0" d="M151.8,221.3c0.4,0.3,0.5,0.8,0.4,1.1c-0.1,0.3-0.6,0.4-1.1,0.3c-0.5-0.1-0.8-0.6-0.5-1.1
									C150.8,221,151.4,220.9,151.8,221.3z"/>
							</g>
						</g>
						<g>
							<g>
								<path class="st0" d="M159.5,207.6c0.5,0.2,0.5,1.3-0.2,2.5c-0.6,1.2-1.6,1.7-2,1.4c-0.4-0.3-0.1-1.3,0.4-2.3
									C158.3,208.2,159,207.4,159.5,207.6z"/>
							</g>
						</g>
						<g>
							<g>
								
									<ellipse transform="matrix(0.9984 -5.592671e-002 5.592671e-002 0.9984 -11.3507 8.9042)" class="st0" cx="153.4" cy="207.2" rx="2.3" ry="0.9"/>
							</g>
						</g>
						<g>
							<g>
								
									<ellipse transform="matrix(0.7807 -0.625 0.625 0.7807 -101.7565 138.633)" class="st0" cx="146.6" cy="214.3" rx="0.9" ry="1.4"/>
							</g>
						</g>
						<g>
							<g>
								<path class="st0" d="M140,219.3c-0.3,0.4-1.5-0.2-2.3-1.5c-0.8-1.3-0.7-2.6-0.2-2.7c0.5-0.1,1.2,0.7,1.8,1.8
									C139.9,217.9,140.3,218.9,140,219.3z"/>
							</g>
						</g>
						<g>
							<g>
								
									<ellipse transform="matrix(0.2553 -0.9669 0.9669 0.2553 -111.3354 293.1829)" class="st0" cx="134.7" cy="218.9" rx="0.9" ry="1.4"/>
							</g>
						</g>
						<g>
							<g>
								
									<ellipse transform="matrix(0.144 -0.9896 0.9896 0.144 -147.2686 318.5204)" class="st0" cx="110.5" cy="244.4" rx="2.6" ry="0.9"/>
							</g>
						</g>
						<g>
							<g>
								
									<ellipse transform="matrix(0.9054 -0.4245 0.4245 0.9054 -92.3574 72.1558)" class="st0" cx="115.8" cy="243.4" rx="0.9" ry="3.1"/>
							</g>
						</g>
						<g>
							<g>
								<path class="st0" d="M123.2,241.8c-0.3,0.4-1.6-0.2-3-1.2c-1.4-1-2.3-2-2.1-2.5c0.3-0.4,1.7-0.1,3.1,1
									C122.7,240.2,123.5,241.5,123.2,241.8z"/>
							</g>
						</g>
						<g>
							<g>
								
									<ellipse transform="matrix(0.3741 -0.9274 0.9274 0.3741 -148.4082 252.8292)" class="st0" cx="113.1" cy="236.4" rx="1.9" ry="0.9"/>
							</g>
						</g>
						<g>
							<g>
								
									<ellipse transform="matrix(0.7972 -0.6037 0.6037 0.7972 -123.5218 123.6241)" class="st0" cx="122.2" cy="245.7" rx="0.9" ry="2"/>
							</g>
						</g>
						<g>
							<g>
								
									<ellipse transform="matrix(0.99 -0.1408 0.1408 0.99 -33.7524 18.3931)" class="st0" cx="113.1" cy="247.7" rx="0.9" ry="1.5"/>
							</g>
						</g>
						<g>
							<g>
								<path class="st0" d="M132.9,239.8c-0.1,0.5-1.8,0.6-3.6,0.2c-1.9-0.4-3.3-1.1-3.3-1.6c0.1-0.5,1.7-0.6,3.6-0.2
									C131.5,238.6,133,239.3,132.9,239.8z"/>
							</g>
						</g>
						<g>
							<g>
								
									<ellipse transform="matrix(0.6359 -0.7718 0.7718 0.6359 -142.0757 189.0997)" class="st0" cx="129.4" cy="245.1" rx="0.9" ry="3.1"/>
							</g>
						</g>
						<g>
							<g>
								
									<ellipse transform="matrix(0.2968 -0.9549 0.9549 0.2968 -137.584 301.8573)" class="st0" cx="136.2" cy="244.3" rx="0.9" ry="2.3"/>
							</g>
						</g>
						<g>
							<g>
								<path class="st0" d="M143.6,246.2c0,0.5-0.7,1-1.6,1.4c-0.8,0.4-1.7,0.6-2,0.3c-0.4-0.3,0.1-1.4,1.3-2
									C142.5,245.4,143.6,245.7,143.6,246.2z"/>
							</g>
						</g>
						<g>
							<g>
								
									<ellipse transform="matrix(0.4886 -0.8725 0.8725 0.4886 -138.4286 245.537)" class="st0" cx="140.2" cy="240.9" rx="0.9" ry="2"/>
							</g>
						</g>
						<g>
							<g>
								<path class="st0" d="M147.4,241.3c0.2,0.5,0,1.1-0.3,1.6c-0.4,0.5-0.8,0.9-1.4,0.9c-0.5,0-0.8-1-0.2-1.9
									C146.1,240.9,147.1,240.8,147.4,241.3z"/>
							</g>
						</g>
						<g>
							<g>
								
									<ellipse transform="matrix(0.9995 -3.122728e-002 3.122728e-002 0.9995 -7.5922 4.8245)" class="st0" cx="150.7" cy="245.5" rx="2.2" ry="0.9"/>
							</g>
						</g>
						<g>
							<g>
								
									<ellipse transform="matrix(0.3952 -0.9186 0.9186 0.3952 -130.1539 285.6835)" class="st0" cx="151.9" cy="241.7" rx="0.9" ry="1.9"/>
							</g>
						</g>
						<g>
							<g>
								<path class="st0" d="M157.4,243.9c-0.5-0.1-0.8-0.8-0.5-1.7c0.3-0.8,1-1.2,1.5-0.9c0.4,0.3,0.5,1,0.3,1.6
									C158.4,243.5,157.9,244,157.4,243.9z"/>
							</g>
						</g>
						<g>
							<g>
								
									<ellipse transform="matrix(0.8352 -0.55 0.55 0.8352 -87.4731 103.4273)" class="st0" cx="128.8" cy="197.7" rx="0.9" ry="2.4"/>
							</g>
						</g>
						<g>
							<g>
								
									<ellipse transform="matrix(0.5384 -0.8427 0.8427 0.5384 -103.8445 203.3377)" class="st0" cx="133.7" cy="196.5" rx="2.9" ry="0.9"/>
							</g>
						</g>
						<g>
							<g>
								
									<ellipse transform="matrix(0.9361 -0.3517 0.3517 0.9361 -61.5701 61.068)" class="st0" cx="137.3" cy="200" rx="2.4" ry="0.9"/>
							</g>
						</g>
						<g>
							<g>
								<path class="st0" d="M138.4,207.5c-0.3,0.4-1.4,0.1-2.4-0.8c-1-0.9-1.4-2-1-2.3c0.4-0.3,1.4,0.2,2.3,1
									C138.2,206.1,138.7,207.1,138.4,207.5z"/>
							</g>
						</g>
						<g>
							<g>
								<path class="st0" d="M131.6,210.8c-0.5,0.1-1.2-1.2-1.1-2.9c0.1-1.7,1-2.9,1.4-2.7c0.5,0.2,0.5,1.4,0.4,2.9
									C132.2,209.4,132.1,210.6,131.6,210.8z"/>
							</g>
						</g>
						<g>
							<g>
								
									<ellipse transform="matrix(0.2704 -0.9627 0.9627 0.2704 -98.3642 274.8737)" class="st0" cx="132.2" cy="202.3" rx="0.9" ry="1.6"/>
							</g>
						</g>
						<g>
							<g>
								<path class="st0" d="M140.8,193.3c0.4,0.3,0,1.6-1.2,2.6c-1.2,1.1-2.5,1.4-2.7,0.9c-0.3-0.4,0.5-1.4,1.5-2.3
									C139.4,193.6,140.4,193,140.8,193.3z"/>
							</g>
						</g>
						<g>
							<g>
								<path class="st0" d="M130.5,190.2c0.5-0.1,1.1,0.8,1.2,2c0.1,1.2-0.5,2.2-1,2.1c-0.5-0.1-0.8-1-0.9-2
									C129.8,191.2,130,190.3,130.5,190.2z"/>
							</g>
						</g>
						<g>
							<g>
								<path class="st0" d="M137.3,186.9c0.5,0.1,0.6,1.3,0.1,2.5c-0.5,1.3-1.4,2-1.8,1.8c-0.4-0.3-0.3-1.3,0.1-2.4
									C136.2,187.6,136.8,186.8,137.3,186.9z"/>
							</g>
						</g>
						<g>
							<g>
								
									<ellipse transform="matrix(0.9954 -9.592601e-002 9.592601e-002 0.9954 -18.3698 14.738)" class="st0" cx="144.1" cy="198.4" rx="1.8" ry="0.9"/>
							</g>
						</g>
						<g>
							<g>
								<path class="st0" d="M143.2,204.9c-0.2,0.5-1.2,0.6-2.3,0.2c-1.1-0.4-1.9-1.1-1.7-1.5c0.1-0.5,1.2-0.6,2.3-0.2
									C142.6,203.7,143.4,204.4,143.2,204.9z"/>
							</g>
						</g>
						<g>
							<g>
								<path class="st0" d="M136.1,212.3c-0.4,0.2-1.3-0.4-1.6-1.6c-0.3-1.1,0-2.2,0.5-2.2c0.5,0,1,0.7,1.3,1.7
									C136.5,211.2,136.5,212.1,136.1,212.3z"/>
							</g>
						</g>
						<g>
							<g>
								
									<ellipse transform="matrix(0.9983 -5.791754e-002 5.791754e-002 0.9983 -12.2419 7.9641)" class="st0" cx="131.3" cy="215.2" rx="0.9" ry="1.6"/>
							</g>
						</g>
						<g>
							<g>
								<path class="st0" d="M143.1,214.5c-0.5,0.2-1.3-0.6-2-1.6c-0.7-1.1-1.1-2.1-0.7-2.5c0.4-0.3,1.5,0.3,2.2,1.5
									C143.4,213.1,143.5,214.3,143.1,214.5z"/>
							</g>
						</g>
						<g>
							<g>
								<path class="st0" d="M148.5,210.2c-0.3,0.4-1.4,0.3-2.7-0.3c-1.3-0.5-2.2-1.2-2.1-1.7c0.1-0.5,1.4-0.6,2.8,0
									C147.9,208.8,148.7,209.7,148.5,210.2z"/>
							</g>
						</g>
						<g>
							<g>
								<path class="st0" d="M148.8,204.7c-0.4,0.3-1.1,0.2-1.6-0.1c-0.6-0.3-1-0.8-1-1.3c0-0.5,0.9-0.9,1.9-0.4
									C149,203.5,149.3,204.4,148.8,204.7z"/>
							</g>
						</g>
						<g>
							<g>
								<path class="st0" d="M133.5,182.5c0.5,0.1,0.7,1.2,0.6,2.6c-0.1,1.4-0.6,2.5-1.1,2.4c-0.5,0-0.9-1.2-0.8-2.6
									C132.4,183.5,133,182.4,133.5,182.5z"/>
							</g>
						</g>
						<g>
							<g>
								
									<ellipse transform="matrix(0.6675 -0.7446 0.7446 0.6675 -92.782 168.7228)" class="st0" cx="142.5" cy="188.3" rx="2.4" ry="0.9"/>
							</g>
						</g>
						<g>
							<g>
								
									<ellipse transform="matrix(0.801 -0.5987 0.5987 0.801 -84.4375 125.2825)" class="st0" cx="146.2" cy="189.6" rx="0.9" ry="0.8"/>
							</g>
						</g>
						<g>
							<g>
								<path class="st0" d="M117.4,185.4c-0.2,0.5-1.5,0.5-2.9-0.2c-1.4-0.6-2.2-1.6-2-2c0.3-0.4,1.5-0.2,2.8,0.4
									C116.6,184.2,117.5,184.9,117.4,185.4z"/>
							</g>
						</g>
						<g>
							<g>
								<path class="st0" d="M111.6,195.5c-0.5,0.2-1.2-0.5-1.5-1.6c-0.3-1.1,0-2.1,0.5-2.1c0.5-0.1,1,0.7,1.3,1.7
									C112.2,194.4,112.1,195.3,111.6,195.5z"/>
							</g>
						</g>
						<g>
							<g>
								
									<ellipse transform="matrix(0.7515 -0.6598 0.6598 0.7515 -95.8121 124.6267)" class="st0" cx="117.5" cy="189.5" rx="0.9" ry="2.1"/>
							</g>
						</g>
						<g>
							<g>
								
									<ellipse transform="matrix(0.7018 -0.7124 0.7124 0.7018 -92.9936 133.786)" class="st0" cx="113.3" cy="178" rx="3" ry="0.9"/>
							</g>
						</g>
						<g>
							<g>
								
									<ellipse transform="matrix(0.3304 -0.9439 0.9439 0.3304 -92.672 220.7906)" class="st0" cx="109.3" cy="175.7" rx="2.2" ry="0.9"/>
							</g>
						</g>
						<g>
							<g>
								<path class="st0" d="M110.2,182.5c0.3,0.4-0.1,1.2-0.8,1.9c-0.7,0.7-1.4,1.1-1.9,0.9c-0.4-0.3-0.3-1.3,0.6-2.2
									C108.9,182.2,109.9,182.1,110.2,182.5z"/>
							</g>
						</g>
						<g>
							<g>
								<path class="st0" d="M108.1,181.2c-0.5,0.2-1.1-0.2-1.1-0.9c0-0.7,0.5-1.2,1-1c0.5,0.2,0.8,0.6,0.8,0.9
									C108.9,180.6,108.6,181,108.1,181.2z"/>
							</g>
						</g>
						<g>
							<g>
								
									<ellipse transform="matrix(0.9905 -0.1377 0.1377 0.9905 -23.7163 17.7248)" class="st0" cx="116.3" cy="180.3" rx="2.1" ry="0.9"/>
							</g>
						</g>
						<g>
							<g>
								
									<ellipse transform="matrix(0.5803 -0.8144 0.8144 0.5803 -93.4291 164.8866)" class="st0" cx="113.3" cy="173.1" rx="2.2" ry="0.9"/>
							</g>
						</g>
						<g>
							<g>
								<path class="st0" d="M117.9,197.3c-0.4,0.4-1.5-0.2-2.1-1.5c-0.7-1.3-0.5-2.5,0-2.6c0.5-0.1,1.1,0.8,1.6,1.8
									C117.9,196,118.3,197,117.9,197.3z"/>
							</g>
						</g>
						<g>
							<g>
								<path class="st0" d="M107.3,199.2c-0.5,0.1-1-0.7-0.9-1.8c0.1-1,0.7-1.7,1.2-1.6c0.5,0.1,0.7,0.9,0.7,1.7
									C108.2,198.4,107.9,199.1,107.3,199.2z"/>
							</g>
						</g>
						<g>
							<g>
								
									<ellipse transform="matrix(0.2922 -0.9563 0.9563 0.2922 -110.2755 247.9907)" class="st0" cx="112.4" cy="198.5" rx="0.9" ry="1.9"/>
							</g>
						</g>
						<g>
							<g>
								
									<ellipse transform="matrix(0.7468 -0.6651 0.6651 0.7468 -98.9304 130.1992)" class="st0" cx="121.5" cy="195" rx="0.9" ry="2.2"/>
							</g>
						</g>
						<g>
							<g>
								
									<ellipse transform="matrix(0.9983 -5.746388e-002 5.746388e-002 0.9983 -10.3027 7.3382)" class="st0" cx="122.4" cy="182.8" rx="2.5" ry="0.9"/>
							</g>
						</g>
						<g>
							<g>
								
									<ellipse transform="matrix(0.8715 -0.4904 0.4904 0.8715 -70.3148 81.4065)" class="st0" cx="120.2" cy="174.9" rx="2.4" ry="0.9"/>
							</g>
						</g>
						<g>
							<g>
								
									<ellipse transform="matrix(0.4677 -0.8839 0.8839 0.4677 -91.0692 189.0618)" class="st0" cx="111.4" cy="170.1" rx="1.3" ry="0.9"/>
							</g>
						</g>
						<g>
							<g>
								
									<ellipse transform="matrix(0.6907 -0.7231 0.7231 0.6907 -86.4593 138.6623)" class="st0" cx="118.9" cy="170.4" rx="2.2" ry="0.9"/>
							</g>
						</g>
						<g>
							<g>
								
									<ellipse transform="matrix(0.9824 -0.1868 0.1868 0.9824 -31.16 26.2239)" class="st0" cx="123.5" cy="178.4" rx="2.1" ry="0.9"/>
							</g>
						</g>
						<g>
							<g>
								<path class="st0" d="M126.3,190.2c-0.3,0.4-1.4,0.2-2.5-0.4c-1.1-0.6-1.9-1.4-1.7-1.9c0.2-0.5,1.4-0.4,2.6,0.3
									C125.9,188.9,126.6,189.8,126.3,190.2z"/>
							</g>
						</g>
						<g>
							<g>
								
									<ellipse transform="matrix(0.3 -0.9539 0.9539 0.3 -81.1016 285.7739)" class="st0" cx="154.2" cy="198.1" rx="0.9" ry="2.7"/>
							</g>
						</g>
						<g>
							<g>
								
									<ellipse transform="matrix(0.6623 -0.7492 0.7492 0.6623 -99.1981 185.1422)" class="st0" cx="155.8" cy="202.6" rx="0.9" ry="1.9"/>
							</g>
						</g>
						<g>
							<g>
								<path class="st0" d="M158,192.6c0.2,0.5-0.9,1.4-2.4,2c-1.5,0.6-2.9,0.7-3.1,0.3c-0.2-0.5,0.9-1.4,2.4-2
									C156.4,192.3,157.8,192.2,158,192.6z"/>
							</g>
						</g>
						<g>
							<g>
								
									<ellipse transform="matrix(0.9996 -2.705059e-002 2.705059e-002 0.9996 -5.2433 4.3563)" class="st0" cx="158.4" cy="196" rx="1.6" ry="0.9"/>
							</g>
						</g>
						<g>
							<g>
								<path class="st0" d="M162.4,202.5c-0.5,0.2-1.2-0.3-1.9-0.9c-0.7-0.6-1.4-1.1-1.4-1.6c0-0.2,0.3-0.4,0.8-0.4
									c0.5,0,1.1,0.2,1.7,0.6c0.6,0.4,0.9,1,1,1.5C162.7,202,162.6,202.4,162.4,202.5z"/>
							</g>
						</g>
						<g>
							<g>
								
									<ellipse transform="matrix(0.7876 -0.6162 0.6162 0.7876 -92.4607 142.9122)" class="st0" cx="161.1" cy="205.6" rx="0.9" ry="2.2"/>
							</g>
						</g>
						<g>
							<g>
								
									<ellipse transform="matrix(0.4941 -0.8694 0.8694 0.4941 -95.2729 225.8804)" class="st0" cx="146.5" cy="194.8" rx="0.9" ry="3.1"/>
							</g>
						</g>
						<g>
							<g>
								
									<ellipse transform="matrix(0.9988 -4.991675e-002 4.991675e-002 0.9988 -9.2539 7.7177)" class="st0" cx="149.9" cy="189.1" rx="0.9" ry="3.3"/>
							</g>
						</g>
						<g>
							<g>
								
									<ellipse transform="matrix(0.7892 -0.6142 0.6142 0.7892 -83.2022 135.1638)" class="st0" cx="155.3" cy="188.8" rx="2.6" ry="0.9"/>
							</g>
						</g>
						<g>
							<g>
								
									<ellipse transform="matrix(0.9715 -0.237 0.237 0.9715 -40.2672 43.8307)" class="st0" cx="162.2" cy="189.4" rx="2.7" ry="0.9"/>
							</g>
						</g>
						<g>
							<g>
								
									<ellipse transform="matrix(0.2902 -0.957 0.957 0.2902 -68.9214 295.3492)" class="st0" cx="164.6" cy="194.1" rx="0.9" ry="2.3"/>
							</g>
						</g>
						<g>
							<g>
								
									<ellipse transform="matrix(0.989 -0.1479 0.1479 0.989 -26.2826 27.2093)" class="st0" cx="169.8" cy="190.3" rx="1.9" ry="0.9"/>
							</g>
						</g>
						<g>
							<g>
								<path class="st0" d="M168.9,196.9c0.2,0.5-0.4,1.2-1.4,1.4c-1,0.2-1.8-0.1-1.9-0.7c0-0.5,0.6-1,1.4-1.1
									C167.9,196.4,168.7,196.5,168.9,196.9z"/>
							</g>
						</g>
						<g>
							<g>
								<path class="st0" d="M171.4,196.1c-0.5,0.2-1.1-0.4-1.1-1.4c0-0.9,0.5-1.6,1-1.5c0.5,0.1,0.8,0.7,0.8,1.4
									C172.1,195.3,171.9,195.9,171.4,196.1z"/>
							</g>
						</g>
						<g>
							<g>
								
									<ellipse transform="matrix(0.1839 -0.9829 0.9829 0.1839 -45.1813 315.9246)" class="st0" cx="167.7" cy="185.2" rx="2.4" ry="0.9"/>
							</g>
						</g>
						<g>
							<g>
								
									<ellipse transform="matrix(9.663580e-002 -0.9953 0.9953 9.663580e-002 -28.0185 338.9406)" class="st0" cx="172.7" cy="184.9" rx="1.6" ry="0.9"/>
							</g>
						</g>
						<g>
							<g>
								
									<ellipse transform="matrix(0.9925 -0.1226 0.1226 0.9925 -21.9143 22.9373)" class="st0" cx="175.5" cy="189.6" rx="0.9" ry="1.9"/>
							</g>
						</g>
						<g>
							<g>
								<path class="st0" d="M107.8,194c-0.5,0-1-1.6-0.9-3.6c0.1-2,0.6-3.6,1.1-3.5c0.5,0,0.8,1.7,0.7,3.6
									C108.6,192.4,108.3,194,107.8,194z"/>
							</g>
						</g>
						<g>
							<g>
								
									<ellipse transform="matrix(0.8432 -0.5376 0.5376 0.8432 -83.7599 89.7151)" class="st0" cx="111.9" cy="188.5" rx="0.9" ry="3.1"/>
							</g>
						</g>
						<g>
							<g>
								
									<ellipse transform="matrix(0.8728 -0.4881 0.4881 0.8728 -79.3323 99.2495)" class="st0" cx="150.8" cy="201.8" rx="0.9" ry="3.4"/>
							</g>
						</g>
					</g>
				</g>
				<g>
					<g>
						
							<ellipse transform="matrix(0.9999 -1.271923e-002 1.271923e-002 0.9999 -2.3995 1.6098)" class="st1" cx="125.4" cy="189.4" rx="0.2" ry="10"/>
					</g>
				</g>
				<g>
					<g>
						<path class="st1" d="M126.6,183.1c0.1,0-0.2,0.8-0.5,1.8c-0.3,1-0.4,1.8-0.6,1.8c-0.1,0-0.1-0.9,0.2-1.9
							C126,183.7,126.5,183,126.6,183.1z"/>
					</g>
				</g>
				<g>
					<g>
						<path class="st1" d="M148,163c0,0,0,0.1,0.1,0.3c0.1,0.2,0.1,0.5,0.2,0.9c0.1,0.8,0.1,2-0.3,3.4c-0.4,1.4-1.3,2.9-2.7,4.2
							c-1.4,1.3-3.6,2-5.8,2c-2.2-0.1-4.3-0.9-5.7-2.2c-1.4-1.3-2.2-2.9-2.5-4.3c-0.3-1.4-0.3-2.6-0.2-3.4c0.1-0.4,0.1-0.7,0.2-0.9
							c0.1-0.2,0.1-0.3,0.1-0.3c0.1,0-0.6,1.8,0.1,4.5c0.4,1.3,1.1,2.9,2.5,4.1c1.3,1.3,3.3,2.1,5.4,2.1c2.1,0,4.1-0.7,5.5-1.8
							c1.4-1.2,2.3-2.7,2.7-4C148.6,164.8,147.9,163,148,163z"/>
					</g>
				</g>
				<g>
					<g>
						<path class="st1" d="M158.2,186.6c0,0,0.3,0.5,0.8,1.4c0.6,1.2,1.2,2.3,1.8,3.5c0.6,1.2,1.2,2.3,1.8,3.5
							c0.5,0.9,0.7,1.5,0.7,1.5c0,0-0.4-0.5-0.9-1.4c-0.5-0.9-1.2-2.1-1.9-3.5c-0.7-1.4-1.3-2.6-1.7-3.6
							C158.4,187.2,158.2,186.6,158.2,186.6z"/>
					</g>
				</g>
			</g>
			<g>
				<g>
					<g>
						<g>
							<g>
								<g>
									<path class="st4" d="M195.8,437.2l-1.9-10.7l-20.1,3.5l2.6,15.7l1.3-0.1c5.6-0.6,28.4-3.7,31.9-5.5
										C213.5,438.1,195.8,437.2,195.8,437.2z"/>
								</g>
							</g>
						</g>
						<g>
							<g>
								<g>
									<path class="st4" d="M183.6,444.2c-0.6-1.6-1.8-3-3.3-3.8c-1.5-0.8-3.3-1.1-4.9-0.6l1,5.6L183.6,444.2z"/>
								</g>
							</g>
						</g>
					</g>
					<g>
						<g>
							<g>
								<path class="st4" d="M204.5,437.9c0,0,6.3,0.7,5.7,1.8c-0.6,1.1-23.5,5.1-33.8,5.9l0-0.5l26.8-4.4
									C203.1,440.8,203.3,438.2,204.5,437.9z"/>
							</g>
						</g>
					</g>
					<g>
						<g>
							<g>
								<g>
									<path class="st1" d="M176,445.2c0,0,0.1,0,0.4,0c0.3,0,0.6-0.1,1-0.1c1-0.1,2.2-0.3,3.7-0.5c3.1-0.4,7.4-1.1,12.1-1.9
										c4.7-0.8,9-1.6,12-2.3c1.4-0.3,2.6-0.6,3.6-0.8c0.4-0.1,0.7-0.2,1-0.2c0.2-0.1,0.3-0.1,0.3-0.1c0,0-0.1,0-0.3,0
										c-0.3,0.1-0.6,0.1-1,0.2c-1,0.2-2.2,0.4-3.6,0.7c-3.1,0.6-7.3,1.4-12,2.2c-4.7,0.8-9,1.5-12.1,1.9
										c-1.4,0.2-2.7,0.4-3.7,0.5c-0.4,0.1-0.7,0.1-1,0.2C176.1,445.2,176,445.2,176,445.2z"/>
								</g>
							</g>
						</g>
					</g>
					<g>
						<g>
							<g>
								<g>
									<path class="st1" d="M203.2,441.1c0.1,0,0-0.9,0.4-1.9c0.4-1,1.1-1.6,1-1.6c0-0.1-0.8,0.5-1.2,1.5
										C202.9,440.2,203.1,441.2,203.2,441.1z"/>
								</g>
							</g>
						</g>
					</g>
					<g>
						<g>
							<g>
								<g>
									
										<ellipse transform="matrix(0.385 -0.9229 0.9229 0.385 -283.2012 451.4534)" class="st1" cx="197.1" cy="438.2" rx="1" ry="0.1"/>
								</g>
							</g>
						</g>
					</g>
					<g>
						<g>
							<g>
								<g>
									
										<ellipse transform="matrix(0.6198 -0.7848 0.7848 0.6198 -269.3159 319.9215)" class="st1" cx="195.5" cy="437.9" rx="0.9" ry="0.1"/>
								</g>
							</g>
						</g>
					</g>
					<g>
						<g>
							<g>
								<g>
									
										<ellipse transform="matrix(0.9874 -0.1585 0.1585 0.9874 -66.7421 36.3675)" class="st1" cx="194.7" cy="436.7" rx="1.1" ry="0.1"/>
								</g>
							</g>
						</g>
					</g>
					<g>
						<g>
							<g>
								<g>
									<path class="st1" d="M193,435.6c0,0.1,0.5,0.2,1.2,0.1c0.7-0.1,1.2-0.3,1.2-0.4c0-0.1-0.5,0.1-1.2,0.1
										C193.6,435.5,193,435.5,193,435.6z"/>
								</g>
							</g>
						</g>
					</g>
					<g>
						<g>
							<g>
								<g>
									<path class="st1" d="M197.1,437.3c0,0,0.5,0,1.3-0.2c0.4-0.1,0.8-0.3,1.3-0.5c0.2-0.1,0.5-0.2,0.7-0.5
										c0.1-0.1,0.2-0.3,0.3-0.5c0-0.2-0.1-0.4-0.3-0.5c-1.3-0.4-2.5,0.5-2.8,1.2c-0.2,0.4-0.3,0.7-0.3,0.9c0,0.2,0,0.4,0,0.4
										c0,0,0-0.5,0.4-1.2c0.2-0.3,0.5-0.7,1-0.9c0.4-0.2,1.1-0.4,1.6-0.2c0.2,0.1,0.2,0.4,0,0.5c-0.2,0.2-0.4,0.3-0.7,0.4
										c-0.5,0.3-0.9,0.4-1.3,0.6C197.6,437.1,197.1,437.2,197.1,437.3z"/>
								</g>
							</g>
						</g>
					</g>
					<g>
						<g>
							<g>
								<g>
									<path class="st1" d="M197.5,437.3c0,0,0.2-0.4,0-0.9c-0.1-0.3-0.2-0.6-0.5-0.9c-0.3-0.2-0.6-0.6-1.2-0.5
										c-0.3,0.1-0.4,0.5-0.3,0.7c0.1,0.2,0.2,0.4,0.3,0.5c0.2,0.3,0.5,0.5,0.7,0.7c0.5,0.3,0.8,0.4,0.8,0.4c0,0-0.3-0.2-0.7-0.5
										c-0.2-0.2-0.4-0.4-0.7-0.7c-0.2-0.2-0.4-0.7-0.1-0.8c0.3-0.1,0.7,0.2,0.9,0.4c0.3,0.2,0.4,0.5,0.5,0.8
										C197.5,436.9,197.4,437.3,197.5,437.3z"/>
								</g>
							</g>
						</g>
					</g>
					<g>
						<g>
							<g>
								<g>
									<path class="st1" d="M175.5,439.7c0,0,0.6-0.2,1.5-0.2c0.9-0.1,2.2,0.1,3.5,0.8c1.2,0.7,2.1,1.7,2.5,2.5
										c0.5,0.8,0.6,1.4,0.6,1.4c0,0,0-0.1-0.1-0.4c-0.1-0.3-0.2-0.6-0.4-1c-0.4-0.8-1.3-1.9-2.6-2.6c-1.3-0.7-2.7-0.8-3.6-0.7
										c-0.5,0-0.8,0.1-1.1,0.2C175.6,439.6,175.5,439.6,175.5,439.7z"/>
								</g>
							</g>
						</g>
					</g>
					<g>
						<g>
							<g>
								<g>
									
										<ellipse transform="matrix(0.9876 -0.1571 0.1571 0.9876 -66.138 33.1659)" class="st1" cx="176.8" cy="435.1" rx="0.1" ry="4.2"/>
								</g>
							</g>
						</g>
					</g>
					<g>
						<g>
							<g>
								<g>
									<path class="st1" d="M185.8,441.8c0,0.1,1.3,0.1,3-0.2c1.6-0.3,2.9-0.7,2.9-0.7c0-0.1-1.3,0.2-2.9,0.5
										C187.2,441.6,185.8,441.8,185.8,441.8z"/>
								</g>
							</g>
						</g>
					</g>
					<g>
						<g>
							<g>
								<g>
									<path class="st1" d="M181.9,442.5c0,0.1,0.2,0.3,0.3,0.5c0.2,0.3,0.3,0.5,0.4,0.5c0.1,0,0-0.3-0.2-0.7
										C182.2,442.6,181.9,442.4,181.9,442.5z"/>
								</g>
							</g>
						</g>
					</g>
					<g>
						<g>
							<g>
								<g>
									
										<ellipse transform="matrix(0.5825 -0.8128 0.8128 0.5825 -283.2666 330.9427)" class="st1" cx="180.5" cy="441.2" rx="0.1" ry="0.5"/>
								</g>
							</g>
						</g>
					</g>
					<g>
						<g>
							<g>
								<g>
									<path class="st1" d="M177.8,440.4c0,0.1,0.3,0,0.6,0.1c0.3,0,0.6,0.2,0.6,0.1c0,0-0.2-0.3-0.6-0.4
										C178.1,440.2,177.8,440.4,177.8,440.4z"/>
								</g>
							</g>
						</g>
					</g>
					<g>
						<g>
							<g>
								<g>
									
										<ellipse transform="matrix(0.198 -0.9802 0.9802 0.198 -290.0333 526.2543)" class="st1" cx="176.6" cy="440.4" rx="0.1" ry="0.3"/>
								</g>
							</g>
						</g>
					</g>
				</g>
			</g>
			<g>
				<g>
					<path class="st3" d="M174.8,253.6c0,0,64.7,10.8,59.6,30.3c-5,19.3-43.3,66.3-43.3,66.3l-24.2-15.3c0,0,35.8-44.4,34.4-45.9
						C199.9,287.5,151,277,151,277l-10.9-28L174.8,253.6z"/>
				</g>
				<g>
					<g>
						<g>
							
								<ellipse transform="matrix(0.185 -0.9827 0.9827 0.185 -139.8832 377.1095)" class="st1" cx="157.4" cy="272.9" rx="0.3" ry="0.9"/>
						</g>
					</g>
					<g>
						<g>
							
								<ellipse transform="matrix(0.1999 -0.9798 0.9798 0.1999 -137.8166 379.3468)" class="st1" cx="163.4" cy="274.1" rx="0.3" ry="1.7"/>
						</g>
					</g>
					<g>
						<g>
							
								<ellipse transform="matrix(0.2168 -0.9762 0.9762 0.2168 -135.7042 381.8516)" class="st1" cx="170.1" cy="275.5" rx="0.3" ry="1.7"/>
						</g>
					</g>
					<g>
						<g>
							
								<ellipse transform="matrix(0.2336 -0.9723 0.9723 0.2336 -133.8507 384.289)" class="st1" cx="176.9" cy="277.1" rx="0.3" ry="1.7"/>
						</g>
					</g>
					<g>
						<g>
							
								<ellipse transform="matrix(0.2504 -0.9681 0.9681 0.2504 -132.2539 386.64)" class="st1" cx="183.6" cy="278.7" rx="0.3" ry="1.7"/>
						</g>
					</g>
					<g>
						<g>
							
								<ellipse transform="matrix(0.2671 -0.9637 0.9637 0.2671 -130.8987 388.9216)" class="st1" cx="190.2" cy="280.5" rx="0.3" ry="1.7"/>
						</g>
					</g>
					<g>
						<g>
							
								<ellipse transform="matrix(0.2837 -0.9589 0.9589 0.2837 -129.7929 391.0823)" class="st1" cx="196.9" cy="282.4" rx="0.3" ry="1.7"/>
						</g>
					</g>
					<g>
						<g>
							
								<ellipse transform="matrix(0.3003 -0.9539 0.9539 0.3003 -128.9268 393.1213)" class="st1" cx="203.5" cy="284.4" rx="0.3" ry="1.7"/>
						</g>
					</g>
					<g>
						<g>
							<path class="st1" d="M206.8,290c-0.2-0.1,0.3-0.8,0.7-1.6c0.4-0.8,0.2-1.5,0.4-1.5c0.1,0,0.2,0.1,0.3,0.5
								c0.1,0.3,0.1,0.9-0.2,1.3C207.6,289.6,207,290.1,206.8,290z"/>
						</g>
					</g>
					<g>
						<g>
							
								<ellipse transform="matrix(0.5927 -0.8055 0.8055 0.5927 -153.9349 283.957)" class="st1" cx="203.8" cy="294.2" rx="1.7" ry="0.3"/>
						</g>
					</g>
					<g>
						<g>
							
								<ellipse transform="matrix(0.5926 -0.8055 0.8055 0.5926 -160.0843 282.9313)" class="st1" cx="199.7" cy="299.7" rx="1.7" ry="0.3"/>
						</g>
					</g>
					<g>
						<g>
							
								<ellipse transform="matrix(0.5926 -0.8055 0.8055 0.5926 -166.2334 281.9049)" class="st1" cx="195.6" cy="305.3" rx="1.7" ry="0.3"/>
						</g>
					</g>
					<g>
						<g>
							
								<ellipse transform="matrix(0.5926 -0.8055 0.8055 0.5926 -172.3808 280.8681)" class="st1" cx="191.5" cy="310.9" rx="1.7" ry="0.3"/>
						</g>
					</g>
					<g>
						<g>
							
								<ellipse transform="matrix(0.5927 -0.8055 0.8055 0.5927 -178.5273 279.832)" class="st1" cx="187.4" cy="316.4" rx="1.7" ry="0.3"/>
						</g>
					</g>
					<g>
						<g>
							
								<ellipse transform="matrix(0.5926 -0.8055 0.8055 0.5926 -184.6756 278.8116)" class="st1" cx="183.3" cy="322" rx="1.7" ry="0.3"/>
						</g>
					</g>
					<g>
						<g>
							
								<ellipse transform="matrix(0.5926 -0.8055 0.8055 0.5926 -190.8237 277.7802)" class="st1" cx="179.2" cy="327.5" rx="1.7" ry="0.3"/>
						</g>
					</g>
					<g>
						<g>
							
								<ellipse transform="matrix(0.5927 -0.8054 0.8054 0.5927 -196.225 276.861)" class="st1" cx="175.6" cy="332.4" rx="0.9" ry="0.3"/>
						</g>
					</g>
				</g>
				<g>
					<g>
						
							<ellipse transform="matrix(0.9467 -0.322 0.322 0.9467 -81.6862 81.4458)" class="st1" cx="205.3" cy="287.6" rx="4.4" ry="0.3"/>
					</g>
				</g>
				<g>
					<g>
						<path class="st1" d="M210.3,288.4c0,0.2-2.1,0.6-4.7,0.9c-2.7,0.2-4.8,0.1-4.8-0.1c0-0.2,2.1-0.3,4.8-0.5
							C208.2,288.5,210.3,288.2,210.3,288.4z"/>
					</g>
				</g>
				<g>
					<path class="st1" d="M191.5,351.8l-14.6-9.4c0,0-1.2-12-4-15.1l23.1,18.6L191.5,351.8z"/>
				</g>
			</g>
			<g>
				<g>
					<path class="st3" d="M106.3,251.6c0,0-4,12.7,8.8,31.8l43.1,66.7l9.8,86.6l32-2.8l-10.8-95.9l-45.4-85.1L106.3,251.6z"/>
				</g>
				<g>
					<g>
						<g>
							<path class="st1" d="M109.7,254c-0.2,0-0.3-0.4-0.3-0.9c0-0.5,0.1-0.9,0.3-0.9c0.2,0,0.3,0.4,0.3,0.9
								C110,253.6,109.9,254,109.7,254z"/>
						</g>
					</g>
					<g>
						<g>
							<path class="st1" d="M110.8,261c-0.2,0-0.5-0.7-0.7-1.7c-0.2-1-0.2-1.8-0.1-1.8c0.2,0,0.5,0.7,0.7,1.7
								C110.9,260.2,111,261,110.8,261z"/>
						</g>
					</g>
					<g>
						<g>
							
								<ellipse transform="matrix(0.9348 -0.3552 0.3552 0.9348 -87.1879 57.2916)" class="st1" cx="112.5" cy="266.1" rx="0.3" ry="1.8"/>
						</g>
					</g>
					<g>
						<g>
							<path class="st1" d="M116.3,274.2c-0.1,0.1-0.7-0.5-1.1-1.4c-0.5-0.9-0.7-1.7-0.5-1.7c0.2-0.1,0.6,0.6,1.1,1.4
								C116.1,273.3,116.4,274.1,116.3,274.2z"/>
						</g>
					</g>
					<g>
						<g>
							
								<ellipse transform="matrix(0.8442 -0.536 0.536 0.8442 -130.853 107.2457)" class="st1" cx="119.1" cy="278.7" rx="0.3" ry="1.8"/>
						</g>
					</g>
					<g>
						<g>
							
								<ellipse transform="matrix(0.8346 -0.5509 0.5509 0.8346 -136.508 114.8323)" class="st1" cx="122.9" cy="284.7" rx="0.3" ry="1.8"/>
						</g>
					</g>
					<g>
						<g>
							
								<ellipse transform="matrix(0.83 -0.5578 0.5578 0.83 -140.5408 120.1969)" class="st1" cx="126.9" cy="290.6" rx="0.3" ry="1.8"/>
						</g>
					</g>
					<g>
						<g>
							
								<ellipse transform="matrix(0.8274 -0.5616 0.5616 0.8274 -143.9612 124.7046)" class="st1" cx="130.9" cy="296.6" rx="0.3" ry="1.8"/>
						</g>
					</g>
					<g>
						<g>
							
								<ellipse transform="matrix(0.8259 -0.5638 0.5638 0.8259 -147.0426 128.7245)" class="st1" cx="134.9" cy="302.5" rx="0.3" ry="1.8"/>
						</g>
					</g>
					<g>
						<g>
							
								<ellipse transform="matrix(0.8252 -0.5649 0.5649 0.8252 -149.8947 132.4011)" class="st1" cx="138.9" cy="308.4" rx="0.3" ry="1.8"/>
						</g>
					</g>
					<g>
						<g>
							
								<ellipse transform="matrix(0.8251 -0.5651 0.5651 0.8251 -152.5532 135.7701)" class="st1" cx="143" cy="314.2" rx="0.3" ry="1.8"/>
						</g>
					</g>
					<g>
						<g>
							
								<ellipse transform="matrix(0.8256 -0.5642 0.5642 0.8256 -154.9982 138.7809)" class="st1" cx="147" cy="320.1" rx="0.3" ry="1.8"/>
						</g>
					</g>
					<g>
						<g>
							
								<ellipse transform="matrix(0.8271 -0.5621 0.5621 0.8271 -157.1394 141.2657)" class="st1" cx="151" cy="326" rx="0.3" ry="1.8"/>
						</g>
					</g>
					<g>
						<g>
							
								<ellipse transform="matrix(0.8302 -0.5575 0.5575 0.8302 -158.7303 142.7954)" class="st1" cx="155" cy="332" rx="0.3" ry="1.8"/>
						</g>
					</g>
					<g>
						<g>
							
								<ellipse transform="matrix(0.8373 -0.5467 0.5467 0.8373 -158.867 141.8763)" class="st1" cx="159" cy="337.9" rx="0.3" ry="1.8"/>
						</g>
					</g>
					<g>
						<g>
							<path class="st1" d="M163.5,345.6c-0.1,0-0.5-0.6-1-1.5c-0.5-0.9-0.8-1.6-0.6-1.7c0.1-0.1,0.7,0.5,1.2,1.4
								C163.5,344.7,163.7,345.5,163.5,345.6z"/>
						</g>
					</g>
					<g>
						<g>
							
								<ellipse transform="matrix(0.9937 -0.112 0.112 0.9937 -38.2501 20.5899)" class="st1" cx="164.2" cy="350.9" rx="0.3" ry="1.8"/>
						</g>
					</g>
					<g>
						<g>
							
								<ellipse transform="matrix(0.9943 -0.1064 0.1064 0.9943 -37.1464 19.5837)" class="st1" cx="165" cy="358" rx="0.3" ry="1.8"/>
						</g>
					</g>
					<g>
						<g>
							
								<ellipse transform="matrix(0.9945 -0.1043 0.1043 0.9945 -37.1594 19.2702)" class="st1" cx="165.7" cy="365" rx="0.3" ry="1.8"/>
						</g>
					</g>
					<g>
						<g>
							
								<ellipse transform="matrix(0.9947 -0.1031 0.1031 0.9947 -37.4652 19.1373)" class="st1" cx="166.5" cy="372.1" rx="0.3" ry="1.8"/>
						</g>
					</g>
					<g>
						<g>
							
								<ellipse transform="matrix(0.9948 -0.1023 0.1023 0.9948 -37.9021 19.0848)" class="st1" cx="167.2" cy="379.2" rx="0.3" ry="1.8"/>
						</g>
					</g>
					<g>
						<g>
							
								<ellipse transform="matrix(0.9948 -0.1016 0.1016 0.9948 -38.397 19.0688)" class="st1" cx="167.9" cy="386.3" rx="0.3" ry="1.8"/>
						</g>
					</g>
					<g>
						<g>
							
								<ellipse transform="matrix(0.9949 -0.1011 0.1011 0.9949 -38.9306 19.0769)" class="st1" cx="168.7" cy="393.4" rx="0.3" ry="1.8"/>
						</g>
					</g>
					<g>
						<g>
							
								<ellipse transform="matrix(0.9949 -0.1008 0.1008 0.9949 -39.5116 19.113)" class="st1" cx="169.4" cy="400.5" rx="0.3" ry="1.8"/>
						</g>
					</g>
					<g>
						<g>
							
								<ellipse transform="matrix(0.9949 -0.1005 0.1005 0.9949 -40.0904 19.1494)" class="st1" cx="170.1" cy="407.6" rx="0.3" ry="1.8"/>
						</g>
					</g>
					<g>
						<g>
							
								<ellipse transform="matrix(0.995 -0.1001 0.1001 0.995 -40.6762 19.1909)" class="st1" cx="170.8" cy="414.7" rx="0.3" ry="1.8"/>
						</g>
					</g>
					<g>
						<g>
							
								<ellipse transform="matrix(0.995 -9.990295e-002 9.990295e-002 0.995 -41.2853 19.2459)" class="st1" cx="171.5" cy="421.8" rx="0.3" ry="1.8"/>
						</g>
					</g>
					<g>
						<g>
							
								<ellipse transform="matrix(0.995 -9.961531e-002 9.961531e-002 0.995 -41.8734 19.2907)" class="st1" cx="172.2" cy="429" rx="0.3" ry="1.8"/>
						</g>
					</g>
					<g>
						<g>
							
								<ellipse transform="matrix(0.9951 -9.925225e-002 9.925225e-002 0.9951 -42.339 19.3052)" class="st1" cx="172.9" cy="435.2" rx="0.3" ry="0.9"/>
						</g>
					</g>
				</g>
				<g>
					<g>
						<path class="st1" d="M190.3,348.1c-0.1,0-0.3-1.7-0.7-4.5c-0.5-2.8-1.3-6.6-2.9-10.5c-1.6-4-3.6-7.3-5-9.7
							c-1.5-2.4-2.4-3.9-2.3-3.9c0,0,0.3,0.3,0.8,0.9c0.5,0.6,1.1,1.6,1.9,2.7c1.6,2.3,3.6,5.7,5.2,9.7c1.6,4,2.4,7.9,2.7,10.7
							c0.2,1.4,0.3,2.5,0.3,3.3C190.3,347.6,190.3,348.1,190.3,348.1z"/>
					</g>
				</g>
				<g>
					<polygon class="st1" points="166.2,432 167.2,437.6 200.9,433.8 200,427 					"/>
				</g>
				<g>
					<g>
						<path class="st1" d="M148.2,249.1c0.1,0,0,0.8-0.1,2.2c-0.1,1.4-0.3,3.4-0.5,5.9l0-0.1c0.7,2.3,1.9,4.9,3.3,7.7
							c2,4.1,4,7.7,5.3,10.4c0.7,1.3,1.2,2.4,1.5,3.2c0.3,0.8,0.5,1.2,0.4,1.2c0,0-0.3-0.4-0.7-1.1c-0.5-0.9-1-1.9-1.6-3.1
							c-1.4-2.6-3.4-6.2-5.5-10.3c-1.4-2.8-2.5-5.4-3.3-7.8l0-0.1l0-0.1c0.3-2.4,0.5-4.4,0.7-5.8C148,249.9,148.1,249.1,148.2,249.1
							z"/>
					</g>
				</g>
			</g>
			<g>
				<g>
					<g>
						<path class="st8" d="M189.4,235.9c-0.2-2.6-6.5-4.7-9.1-5.4l0,0l-0.8-0.2c-0.2,0-0.3-0.1-0.3-0.1l0,0l-48.9-10.4l-5.5-19.1
							h-17.7c0.4,0.9,4.1,32.3,13.6,34.5c9.5,2.2,50.1,5.5,50.1,5.5s1.3,0.1,3,0.3c0,0,0,0,0,0.1c0,1.7,1.8,1.8,3.7,1.9
							c4.7,0.2,6.1-1.8,6.1-1.8l0,0c1.4-1,2.6-3.2,2.6-3.2s1.1,3.2,1.5,5.1c0.6,2.7,1.7,2.4,1.7,2.4S189.5,237.7,189.4,235.9z"/>
					</g>
					<g>
						<g>
							
								<ellipse transform="matrix(8.350781e-002 -0.9965 0.9965 8.350781e-002 -77.8889 398.1013)" class="st9" cx="177.5" cy="241.4" rx="0.3" ry="3.7"/>
						</g>
					</g>
					<g>
						<g>
							<path class="st9" d="M182.5,239.5c0,0,0.2-0.1,0.5-0.1c0.3,0,0.7,0.2,0.9,0.7c0.2,0.4,0.1,0.9-0.2,1.1
								c-0.2,0.2-0.4,0.2-0.4,0.2c0-0.1,0.1-0.1,0.2-0.3c0.1-0.2,0.2-0.5,0-0.8C183.3,239.7,182.5,239.6,182.5,239.5z"/>
						</g>
					</g>
					<g>
						<g>
							<path class="st9" d="M184.4,237.2c0-0.1,0.8-0.1,1.1,0.7c0.3,0.8-0.3,1.4-0.3,1.3c-0.1-0.1,0.2-0.6,0-1.2
								C185,237.5,184.4,237.3,184.4,237.2z"/>
						</g>
					</g>
				</g>
				<g>
					<path class="st3" d="M181.1,230.7l4.8-8.5c0.7-0.1,1.1,0,1.2,0.4l-4.6,8.5L181.1,230.7z"/>
				</g>
				<g>
					<polygon class="st3" points="175.7,241.1 173.8,244.6 173.8,246.5 175.7,245.2 177.9,241.4 					"/>
				</g>
			</g>
			<g>
				<g>
					<g>
						<path class="st1" d="M115.7,129.1c0,0-0.3-0.3-0.7-0.9c-0.3-0.7-0.7-1.7-0.6-3.1c0.1-1.4,0.6-3,1.5-4.4c1-1.5,2.4-2.9,4.4-3.7
							c1.9-0.8,4.1-0.7,5.7,0.2c1.6,0.8,2.7,2.3,3,3.6c0.3,1.3,0,2.5-0.3,3.2c-0.3,0.7-0.7,1-0.7,0.9c0,0,0.2-0.4,0.5-1
							c0.2-0.7,0.4-1.7,0.1-3c-0.3-1.2-1.3-2.5-2.8-3.2c-1.5-0.7-3.5-0.8-5.3-0.1c-1.8,0.7-3.2,2.1-4.2,3.4c-1,1.4-1.5,2.9-1.6,4.1
							c-0.1,1.3,0.2,2.3,0.4,3C115.5,128.8,115.8,129.1,115.7,129.1z"/>
					</g>
				</g>
				<g>
					<g>
						<path class="st8" d="M148,165.6c0.1-4.8,0.3-9.8,0.3-9.8s5.8-0.8,7.1-8.8c1.3-7.6,0.4-25.4,0.4-25.4l0,0
							c-8.2-4-18.1-1.9-24.1,4.9l0,0l-0.1,39c0,4.5,3.6,8.2,8.1,8.3h0C144.2,173.8,148,170.2,148,165.6z"/>
					</g>
					<g>
						<g>
							
								<ellipse transform="matrix(0.9999 -1.731183e-002 1.731183e-002 0.9999 -2.3067 2.6664)" class="st1" cx="152.9" cy="134.6" rx="1" ry="1"/>
						</g>
						<g>
							<g>
								<path class="st1" d="M155.4,133.5c-0.1,0.1-0.8-0.5-1.9-0.5c-1-0.1-1.8,0.5-1.9,0.3c-0.1-0.1,0.1-0.3,0.4-0.5
									c0.3-0.2,0.9-0.5,1.5-0.4c0.6,0,1.2,0.3,1.5,0.6C155.4,133.2,155.5,133.4,155.4,133.5z"/>
							</g>
						</g>
					</g>
					<g>
						<g>
							
								<ellipse transform="matrix(0.9999 -1.731183e-002 1.731183e-002 0.9999 -2.3084 2.4709)" class="st1" cx="141.6" cy="134.6" rx="1" ry="1"/>
						</g>
						<g>
							<g>
								<path class="st1" d="M143.9,133.7c-0.1,0.1-0.8-0.5-1.9-0.5c-1-0.1-1.8,0.5-1.9,0.3c-0.1-0.1,0.1-0.3,0.4-0.5
									c0.3-0.2,0.9-0.5,1.5-0.4c0.6,0,1.2,0.3,1.5,0.6C143.9,133.4,144,133.6,143.9,133.7z"/>
							</g>
						</g>
					</g>
					<g>
						<g>
							<path class="st1" d="M147.8,142.6c0-0.1,0.6-0.2,1.7-0.3c0.3,0,0.5-0.1,0.6-0.3c0.1-0.2,0-0.5-0.2-0.8
								c-0.2-0.7-0.5-1.4-0.8-2.2c-1-3.1-1.8-5.7-1.7-5.7c0.1,0,1.1,2.5,2.1,5.6c0.3,0.8,0.5,1.5,0.7,2.2c0.1,0.3,0.3,0.7,0.1,1.1
								c-0.1,0.2-0.3,0.4-0.4,0.4c-0.2,0-0.3,0-0.5,0C148.5,142.7,147.8,142.6,147.8,142.6z"/>
						</g>
					</g>
					<g>
						<path class="st9" d="M148.3,155.8c0,0-5.1,0.1-10-3.3c0,0,2.4,5.6,9.9,5.2L148.3,155.8z"/>
					</g>
					<g>
						<path class="st9" d="M147.4,145.3c-0.1-0.7-0.6-1.2-1.2-1.5c-0.4-0.2-0.9-0.2-1.3,0c-0.4,0.2-0.7,0.7-0.6,1.1
							c0.1,0.5,0.6,0.9,1.1,1c0.5,0.1,1,0,1.5-0.1c0.1,0,0.3-0.1,0.4-0.1C147.4,145.7,147.5,145.5,147.4,145.3"/>
					</g>
					<g>
						<g>
							<path class="st1" d="M144.9,142.5c0.2,0,0.2,1.2,1.1,2.1c0.9,0.9,2.2,0.8,2.2,1c0,0.1-0.3,0.2-0.8,0.2
								c-0.5,0-1.2-0.2-1.8-0.7c-0.6-0.5-0.8-1.3-0.9-1.8C144.6,142.8,144.8,142.5,144.9,142.5z"/>
						</g>
					</g>
				</g>
				<g>
					<path class="st1" d="M136.1,120.9c2.6,4.7,9.7,9.7,14.9,11c-0.6-1-3.7-3.4-4.3-4.3c2.3,2.1,5.6,5,8.7,5.4
						c0.4,0,0.8,0.1,1.1-0.1c0.4-0.3,0.5-0.8,0.6-1.3c0.3-2.1,0.3-5.8,0-7.9c-0.2-2.1-1-4.3-2.5-5.7c-1.9-1.9-4.8-2.5-7.5-2.7
						c-2.3-0.2-4.6-0.1-6.7,0.7c-2.1,0.9-3.9,2.6-4.3,4.9"/>
				</g>
				<g>
					<path class="st1" d="M137.8,121.9c0,0,2.3,9.1-3.6,15.1c0,0-0.8,8.6-4.9,12.6c0,0-2.1-10.5-2.2-14.5s-1.9-18.9,11.4-17.1
						L137.8,121.9z"/>
				</g>
				<g>
					<path class="st1" d="M128.7,128.4c1.1-2.4,0.5-5.3-1.2-7.3c-1.7-2-4.4-2.9-7-2.7c-2.6,0.3-5,1.7-6.7,3.6
						c-1.3,1.6-2.2,3.5-2.1,5.5c0.1,2.7,2,5.2,4.5,6.3c2.5,1.1,5.5,0.9,7.9-0.2c2.5-1.1,4.5-3.1,6-5.4"/>
				</g>
				<g>
					<polygon class="st4" points="119.5,121.9 115.7,114.4 115.7,113 117,113.7 120.9,121.3 					"/>
				</g>
				<g>
					<path class="st4" d="M122.2,121.2c0-0.1,0-9,0-9s0.2-0.7,0.9-0.6c0.7,0.1,0.7,0.7,0.7,0.7v9.1L122.2,121.2z"/>
					<path class="st10" d="M122.2,121.2c0-0.1,0-9,0-9s0.2-0.7,0.9-0.6c0.7,0.1,0.7,0.7,0.7,0.7v9.1L122.2,121.2z"/>
				</g>
				<g>
					<polygon class="st4" points="122.6,121.3 122.6,112.2 123.2,112.2 123.2,121.4 					"/>
				</g>
				<g>
					<path class="st3" d="M122.2,112.3l1.6,0c0,0-0.1-0.7-0.7-0.7C122.5,111.6,122.3,112,122.2,112.3z"/>
				</g>
				<g>
					<path class="st3" d="M115.7,114.4c0,0,0.3,0.1,0.5,0c0.2-0.1,0.2-0.4,0.2-0.4s0.4,0.1,0.6,0c0.2-0.1,0-0.4,0-0.4l-0.9-0.5
						l-0.4,0.2V114.4z"/>
				</g>
				<g>
					<g>
						<path class="st1" d="M127.5,124.1c0,0,0.3,0.5,0.6,1.4c0.2,0.9,0.5,2.4,0.1,4.1c-0.3,1.7-1.4,3.7-3.3,5.1
							c-1.8,1.4-4.6,2.2-7.3,1.5c-1.3-0.3-2.5-1-3.5-1.9c-1-0.9-1.6-1.9-2.1-3c-0.9-2.2-0.6-4.5,0.2-6.1c0.8-1.6,1.8-2.6,2.5-3.3
							c0.7-0.6,1.2-0.9,1.2-0.9c0,0-0.4,0.4-1.1,1.1c-0.7,0.7-1.6,1.7-2.3,3.3c-0.7,1.5-0.9,3.6,0,5.7c0.8,2.1,2.7,3.9,5.2,4.5
							c2.5,0.7,5,0,6.8-1.3c1.8-1.3,2.8-3.1,3.2-4.8c0.4-1.6,0.3-3,0.1-4C127.6,124.6,127.4,124.1,127.5,124.1z"/>
					</g>
				</g>
				<g>
					<g>
						<path class="st1" d="M145.3,128c0.1,0-0.2,0.8-1.3,1c-0.5,0.1-1.2,0.1-1.9-0.1c-0.7-0.2-1.3-0.7-1.9-1.2c-1.2-1-2-2.3-2.4-3.2
							c-0.4-0.9-0.5-1.6-0.4-1.6c0.2-0.1,0.9,2.4,3.2,4.3c1.1,1,2.3,1.5,3.3,1.4C144.9,128.5,145.3,127.9,145.3,128z"/>
					</g>
				</g>
				<g>
					<path class="st8" d="M134.5,136.9c-0.8-0.2-1.6-0.2-2.4,0.1c-0.8,0.3-1.5,0.8-1.8,1.6c-0.4,0.7-0.3,1.6-0.1,2.4
						c0.3,0.8,0.7,1.5,1.3,2.1c0.4,0.4,0.9,0.8,1.4,1c0.6,0.2,1.2,0.2,1.7-0.2"/>
				</g>
				<g>
					<g>
						<path class="st9" d="M133.9,141.8c0.1,0-0.3,0.5-1,0.3c-0.4-0.1-0.7-0.4-0.9-0.8c-0.2-0.4-0.3-0.8-0.4-1.3
							c0-0.5,0.1-1,0.4-1.4c0.3-0.4,0.7-0.6,1.1-0.6c0.8,0,1,0.5,0.9,0.5c-0.1,0.1-0.3-0.2-0.8-0.1c-0.5,0.1-1,0.7-0.9,1.5
							c0.1,0.8,0.4,1.6,0.8,1.8C133.5,141.9,133.8,141.7,133.9,141.8z"/>
					</g>
				</g>
				<g>
					<g>
						<path class="st4" d="M131.3,143.3c0.1,0.1-0.3,0.5-0.4,1.3c0,0.4,0.1,0.9,0.5,1.3c0.4,0.4,0.9,0.6,1.5,0.4
							c0.6-0.1,1-0.6,1.1-1.1c0.1-0.5,0-1-0.2-1.4c-0.4-0.7-1-1-0.9-1.1c0-0.1,0.7,0.1,1.3,0.9c0.3,0.4,0.5,1,0.4,1.7
							c-0.1,0.7-0.7,1.4-1.5,1.6c-0.8,0.2-1.6-0.1-2.1-0.7c-0.5-0.5-0.6-1.2-0.5-1.7C130.6,143.6,131.2,143.3,131.3,143.3z"/>
					</g>
				</g>
				<g>
					<g>
						<path class="st1" d="M126.5,130.7c-0.1,0.1-0.8-1.7-0.4-3.9c0.4-2.2,1.8-3.6,1.9-3.4c0.1,0.1-0.9,1.5-1.3,3.6
							C126.3,129,126.7,130.6,126.5,130.7z"/>
					</g>
				</g>
			</g>
		</g>
		<g>
			<g>
				<polygon class="st3" points="146,249 147.4,247.6 180.1,247.6 181.1,249.1 				"/>
			</g>
			<g>
				<g>
					<g>
						<polygon class="st1" points="27.5,252.1 69.2,443.6 74,443.6 31.8,252.1 						"/>
					</g>
					<g>
						<polyline class="st1" points="70.2,252.1 27.5,443.6 31.7,443.6 74,252.1 70.2,252.1 						"/>
					</g>
					<g>
						<polygon class="st1" points="35.5,418.2 65.5,418.2 65.5,414.3 36.8,414.3 						"/>
					</g>
				</g>
				<g>
					<g>
						<polygon class="st1" points="275.1,252.1 316.7,444.1 321.6,444.1 279.4,252.1 						"/>
					</g>
					<g>
						<polyline class="st1" points="317.8,252.1 275.1,444.1 279.2,444.1 321.6,252.1 317.8,252.1 						"/>
					</g>
					<g>
						<polygon class="st1" points="283.1,418.6 313.1,418.6 313.1,414.7 284.4,414.7 						"/>
					</g>
				</g>
				<g>
					<g>
						<g>
							<g>
								<polygon class="st1" points="278.2,199.1 261.1,249 183.8,249 184.4,246.4 215.7,245.4 230.1,199 								"/>
							</g>
						</g>
						<g>
							<g>
								<path class="st0" d="M244,222.5c-0.5,2,0.4,4,2,4.5c1.6,0.4,3.3-0.9,3.8-2.9c0.5-2-0.4-4-2-4.5
									C246.2,219.1,244.5,220.5,244,222.5z"/>
							</g>
						</g>
					</g>
					<g>
						<g>
							<polygon class="st0" points="247.3,233.2 248.9,237.4 264.8,229.8 263.3,225.6 							"/>
						</g>
						<g>
							<polygon class="st3" points="248.6,233.6 249.6,235.9 263.6,229.4 262.8,226.5 							"/>
						</g>
					</g>
					<g>
						<g>
							<circle class="st0" cx="258.8" cy="210.3" r="5"/>
						</g>
						<g>
							<path class="st4" d="M257.9,206.2c-1.8,0.4-3.1,2.2-3,4.1c0.1,1.8,1.4,3.5,3.2,4c0.8,0.2,1.7,0.2,2.4-0.1
								c0.8-0.4,1.3-1.1,1.7-1.8c0.5-1,0.8-2.2,0.5-3.3c-0.3-1.2-1.2-2.2-2.3-2.7c-1.2-0.4-2.5-0.3-3.5,0.4"/>
						</g>
					</g>
					<g>
						<g>
							<polygon class="st0" points="229.6,231.5 234.5,229.4 237.8,232.1 235.4,238 229.2,235.5 							"/>
						</g>
						<g>
							<polygon class="st4" points="230.1,232 234.3,230 237.1,232.3 235,237.2 229.8,235.2 							"/>
						</g>
					</g>
				</g>
				<g>
					<rect x="4" y="249" class="st1" width="338" height="3.3"/>
				</g>
				<g>
					<g>
						<g>
							<path class="st11" d="M299.9,225.5c-3.7-3.8-5.9-9-6.2-14.3c-0.1-2.5,0.3-5.3,2-7.2c2.2-2.4,6.5-2.5,8.8-0.2
								c2.4,2.4,2.4,6.2,1.8,9.4c-0.9,4.9-3.3,8.5-6.1,12.6"/>
						</g>
						<g>
							<path class="st11" d="M305.3,225.4c0.9-3.9,3.2-7.4,6.4-9.7c1.5-1.1,3.4-2,5.3-1.7c2.4,0.4,4.2,3,3.7,5.4
								c-0.5,2.4-2.9,4-5.2,5c-3.4,1.4-6.7,1.4-10.4,1.3"/>
						</g>
						<g>
							<g>
								
									<ellipse transform="matrix(2.074637e-002 -0.9998 0.9998 2.074637e-002 68.8151 520.4416)" class="st1" cx="300.1" cy="225.1" rx="11.1" ry="0.3"/>
							</g>
						</g>
						<g>
							<g>
								<path class="st1" d="M316.1,218.8c0,0.1-0.8,0.7-2.2,1.7c-1.4,1-3.4,2.2-5.7,3.5c-2.3,1.3-4.4,2.4-5.9,3.2
									c-1.5,0.8-2.5,1.2-2.6,1.1c0-0.1,0.9-0.6,2.3-1.5c1.7-1,3.6-2.1,5.8-3.3c2.1-1.3,4.1-2.4,5.8-3.4
									C315.1,219.3,316,218.8,316.1,218.8z"/>
							</g>
						</g>
						<g>
							<polyline class="st3" points="289.2,234.4 311.7,235.5 309.4,249.1 291.5,249.1 289.2,234.4 							"/>
						</g>
					</g>
					<g>
						<g>
							<path class="st1" d="M300.1,231.6c0,0.2-2.2-0.3-4.6-1.3c-2.5-1-4.3-2.2-4.2-2.4c0.1-0.2,2,0.8,4.5,1.8
								C298.2,230.7,300.2,231.4,300.1,231.6z"/>
						</g>
					</g>
				</g>
			</g>
		</g>
	</g>
</g>
</svg>
